<svg xmlns="http://www.w3.org/2000/svg" xmlns:xlink="http://www.w3.org/1999/xlink" viewBox="0 0 68 68"><defs><style>.cls-1{fill:#c4d9e8;opacity:0.5;}.cls-1,.cls-2,.cls-3,.cls-4,.cls-5{fill-rule:evenodd;}.cls-2{fill:#8552d7;}.cls-3{fill:#38055a;}.cls-4{fill:url(#Безымянный_градиент_43);}.cls-5{fill:#e7e9e9;}.cls-6{fill:none;stroke:#38055a;stroke-miterlimit:10;stroke-width:0.75px;}.cls-7{fill:#150035;}.cls-8{fill:#380558;}.cls-9{fill:#fff;}</style><linearGradient id="Безымянный_градиент_43" x1="30.31" y1="777.76" x2="-22.11" y2="778.08" gradientTransform="translate(27.97 -771.03) scale(1.03)" gradientUnits="userSpaceOnUse"><stop offset="0.17" stop-color="#e7e9e9"/><stop offset="0.55" stop-color="#b1b4c3"/><stop offset="0.84" stop-color="#8f92aa"/><stop offset="0.99" stop-color="#8285a1"/></linearGradient></defs><g id="_1" data-name="1"><path id="Elipsa_820" data-name="Elipsa 820" class="cls-1" d="M21,41.3a33.18,33.18,0,0,1,30.53,0c8.41,5,8.41,13.06,0,18a33.12,33.12,0,0,1-30.53,0C12.63,54.36,12.63,46.35,21,41.3Z"/><path id="Elipsa_820-2" data-name="Elipsa 820-2" class="cls-2" d="M14.71,36.18c9.62-5,33.57-4.89,43.18.08V44c0,3.28-2.16,6.41-6.32,8.89a33.12,33.12,0,0,1-30.53,0c-4.24-2.48-6.33-5.69-6.33-9Z"/><path id="Elipsa_820-3" data-name="Elipsa 820-3" class="cls-3" d="M21,27.12a33.18,33.18,0,0,1,30.53,0c8.41,5,8.41,13.06,0,18a33.12,33.12,0,0,1-30.53,0C12.63,40.18,12.63,32.17,21,27.12Z"/><path id="Elipsa_820-4" data-name="Elipsa 820-4" class="cls-4" d="M14.71,21.19c9.62-5,33.57-4.88,43.18.08v8.1c0,3.28-2.16,6.4-6.32,8.89a33.12,33.12,0,0,1-30.53,0c-4.16-2.49-6.33-5.69-6.33-9Z"/><path id="Elipsa_820-5" data-name="Elipsa 820-5" class="cls-5" d="M21,12.62a33.18,33.18,0,0,1,30.53,0c8.41,5,8.41,13,0,18a33.18,33.18,0,0,1-30.53,0C12.63,25.68,12.63,17.59,21,12.62Z"/><path id="Elipsa_820-7" data-name="Elipsa 820-7" class="cls-6" d="M22.72,13.66a29.43,29.43,0,0,1,27.08,0c7.45,4.41,7.45,11.54,0,16a29.43,29.43,0,0,1-27.08,0C15.27,25.2,15.27,18.07,22.72,13.66Z"/><polygon class="cls-7" points="35.28 22.52 35.28 23.38 35.28 23.38 33.39 24.47 33.39 24.47 33.39 23.61 33.39 23.61 35.28 22.52 35.28 22.52"/><path class="cls-7" d="M33.39,24.6l-.11-.06v-1l.07,0,1.93-1.11.11.06v1l-.07,0Zm.11-.93v.62l1.67-1v-.61Z"/><polygon class="cls-7" points="36.69 23.34 36.69 24.2 36.7 24.2 37.75 23.59 37.75 23.59 37.75 22.73 37.75 22.73 36.69 23.34 36.69 23.34"/><path class="cls-7" d="M36.7,24.32l-.11-.06v-1l0,0,1.12-.65.11.06v1l-.06,0Zm.1-.92V24l.84-.48v-.62Z"/><rect class="cls-7" x="32.51" y="24.06" width="0.22" height="0.86"/><path class="cls-8" d="M36.71,22.72l-.15.14v0l-.22-.13.8-.46h0v-.86h-1l-.12.5h0l-.57.33h0l-4.1-2.37,0,0-.19-.25h-.88v.86h0l1.65,4h0l.68.36h0l2.66-1.54h0l1.41.82h0l1.06-.61h0v-.86h-1Zm-3.94,1.12-.83-2.24h0l-.15-.2h0l2.6,1.5h0l-1.65.95Z"/><path class="cls-7" d="M32.6,25l0,0-.7-.37,0,0-1.65-4.07v-1h1.06l0,.06.13.16,4.08,2.36.48-.27.13-.54h1.16v1l-.06,0-.37.21h1v1.05l-.06,0-1.11.62,0,0-1.36-.78ZM32,24.48l.59.32,2.67-1.53.06,0,1.35.79,1-.55v-.7h-.89l-.09.08v.17l-.53-.31.92-.52v-.7h-.78l-.1.46,0,0-.63.35,0,0L31.38,20l-.05,0-.21-.29H30.4v.74Zm.77-.52-.09,0,0-.06-.83-2.23-.21-.3.2-.08,2.7,1.55V23l-.06,0Zm-.72-2.3.76,2,1.38-.8Z"/><path class="cls-9" d="M35.48,21.41l.81-.46h0l.85.49h0l-.8.46h0l1.41.81h0l-1.06.61h0l-1.41-.82h0l-2.66,1.54h0l-.68-.36h0l-1.65-4h0l1.08-.63h0l4.1,2.36ZM32.77,23,34.42,22h0l-2.6-1.49h0l.15.2h0L32.77,23Z"/><path class="cls-7" d="M32.61,24.18l0,0-.7-.37,0,0-1.68-4.1.07-.05,1.16-.67.05,0,4,2.33.81-.47.06,0,.9.52v.13l-.06,0-.64.37,1.31.75v.13l-.06,0-1.11.64-.06,0-1.35-.79ZM32,23.62l.59.31,2.67-1.54.06,0,1.35.78.85-.49L36.23,22v-.12l.06,0,.64-.37-.64-.37-.81.47-.06,0-4-2.33-.95.55Zm.77-.52-.1,0,0,0-.83-2.25-.21-.29.2-.08L34.53,22v.13l-.06,0Zm-.72-2.31.76,2L34.21,22Z"/><polygon class="cls-7" points="31.94 23.7 31.94 23.7 31.94 24.56 30.29 20.54 30.29 20.54 30.29 19.68 31.94 23.7"/><polygon class="cls-7" points="32.66 21.01 32.66 21.87 32.66 21.87 32.28 21.65 32.28 21.65 31.94 20.74 32.06 20.66 32.66 21.01 32.66 21.01"/><path class="cls-7" d="M32.66,22l-.46-.26,0,0-.37-1,.25-.16.71.41v1Zm-.3-.41.19.1v-.61l-.48-.28Z"/><polygon class="cls-7" points="36.34 21.91 36.34 21.91 37.09 22.34 37.14 22.31 37.14 21.45 37.14 21.45 36.34 21.91"/><path class="cls-7" d="M37.09,22.47l-.86-.5v-.12l.06,0,.85-.49.11.06v1Zm-.54-.56.49.28v-.56Z"/><polygon class="cls-7" points="29.82 28.4 29.82 29.26 29.82 29.26 32.97 27.44 32.97 27.44 32.97 26.58 32.97 26.58 29.82 28.4 29.82 28.4"/><path class="cls-7" d="M29.82,29.38l-.11-.06v-1l.05,0L33,26.46l.11.06v1l0,0Zm.11-.92v.61l2.93-1.69v-.62Z"/><path class="cls-8" d="M32.84,26.1l-.18.54h0L30.32,28h0l-.19-1.66A5.53,5.53,0,0,0,29.77,25a1.55,1.55,0,0,0-.72-.74,4.77,4.77,0,0,0-2-.94c-.67,0-1.1.68-1.71,1a2.69,2.69,0,0,0-.48.34h-.47v.91a1.34,1.34,0,0,0,.84,1.06h0l1-.59h0v-.86h0l-.5,0a1.15,1.15,0,0,1,.39-.36,1.74,1.74,0,0,1,.91-.23,2,2,0,0,1,.89.26,1.33,1.33,0,0,1,.53.52,2.73,2.73,0,0,1,.27.93l.31,2.48h0l.73.42h0l4.11-2.37h0V26h0l-1.08.07Z"/><path class="cls-7" d="M29.82,29.39l-.06,0-.71-.41-.07,0v-.08l-.31-2.47a2.36,2.36,0,0,0-.26-.89,1.23,1.23,0,0,0-.48-.48,1.77,1.77,0,0,0-.84-.24,1.5,1.5,0,0,0-.85.22,1.52,1.52,0,0,0-.23.16h.39v1l0,0-1.07.62-.1,0a1.45,1.45,0,0,1-.9-1.15v-1l.07-.07h.47a3.5,3.5,0,0,1,.47-.32,3.54,3.54,0,0,0,.58-.44A1.89,1.89,0,0,1,27,23.25a3.58,3.58,0,0,1,1.69.72l.37.23a1.73,1.73,0,0,1,.77.8,5.75,5.75,0,0,1,.33,1.3l.18,1.53,2.19-1.26.18-.58h.09L34,25.91v1l0,0Zm-.63-.62.63.37,4-2.31v-.69l-.9.06-.15.45v.05l-.06,0L30.34,28.1l-.15,0L30,26.33a5.71,5.71,0,0,0-.32-1.24,1.49,1.49,0,0,0-.67-.7l-.39-.24a3.42,3.42,0,0,0-1.56-.69h0A1.79,1.79,0,0,0,26,24a3.37,3.37,0,0,1-.61.46,3.53,3.53,0,0,0-.47.33l-.07.06,0,0h-.32v.8a1.27,1.27,0,0,0,.76,1l.93-.54v-.7h-.56l.08-.16a1.05,1.05,0,0,1,.43-.4,1.84,1.84,0,0,1,1-.24,2.07,2.07,0,0,1,.94.26,1.5,1.5,0,0,1,.56.56,2.86,2.86,0,0,1,.29,1Z"/><path class="cls-7" d="M26.89,23.78l-.23-.35h0c-.5.2-.89.74-1.43,1h0c0,.18,0,.35,0,.38a4,4,0,0,0,.61.38h0a1,1,0,0,1,.37-.32,1.6,1.6,0,0,1,.7-.22h0v-.86Z"/><path class="cls-7" d="M25.86,25.33l-.08,0c-.68-.37-.68-.41-.68-.48s0-.2,0-.39l0-.06v0h0a4,4,0,0,0,.67-.49,2.94,2.94,0,0,1,.76-.52l.07,0,.06.06.25.4v1h-.11a1.6,1.6,0,0,0-.65.21,1,1,0,0,0-.33.28Zm-.54-.55c.05,0,.19.12.47.28a1.3,1.3,0,0,1,.35-.28,1.82,1.82,0,0,1,.64-.23v-.73l-.16-.26A4,4,0,0,0,26,24a3.53,3.53,0,0,1-.66.49C25.33,24.62,25.32,24.72,25.32,24.78Z"/><path class="cls-9" d="M33.92,26l-4.1,2.37h0L29.09,28h0l-.31-2.47a2.87,2.87,0,0,0-.27-.94A1.39,1.39,0,0,0,28,24a2,2,0,0,0-.89-.25,1.74,1.74,0,0,0-.91.23c-.32.19-.47.4-.43.62a1,1,0,0,0,.54.62h0l-1,.59h0a1.36,1.36,0,0,1-.85-1.11c0-.43.32-.84.95-1.2A3.82,3.82,0,0,1,27.25,23a3.39,3.39,0,0,1,1.8.44,1.61,1.61,0,0,1,.72.75,5.43,5.43,0,0,1,.33,1.27l.19,1.67h0l2.76-1.59h0l.84.48Z"/><path class="cls-7" d="M29.82,28.52l-.06,0L29,28V28l-.31-2.46a2.36,2.36,0,0,0-.26-.89,1.23,1.23,0,0,0-.48-.48,1.77,1.77,0,0,0-.84-.24,1.58,1.58,0,0,0-.85.21q-.43.26-.39.51a.91.91,0,0,0,.49.54l.05,0v.13l-.06,0L25.28,26l-.1,0a1.46,1.46,0,0,1-.91-1.21c0-.47.34-.91,1-1.3a4,4,0,0,1,2-.55,3.46,3.46,0,0,1,1.85.46,1.73,1.73,0,0,1,.77.8,5.61,5.61,0,0,1,.33,1.3L30.38,27l2.7-1.56.06,0L34,26v.13l-.05,0Zm-.63-.61.63.36L33.71,26l-.63-.37-2.74,1.58-.15,0L30,25.47a6,6,0,0,0-.32-1.25,1.54,1.54,0,0,0-.67-.7,3.55,3.55,0,0,0-1.75-.43,3.8,3.8,0,0,0-1.86.53q-.9.52-.9,1.11c0,.39.25.72.76,1l.83-.48a1,1,0,0,1-.44-.59c0-.27.12-.52.49-.73a1.76,1.76,0,0,1,1-.25A2.08,2.08,0,0,1,28,24a1.5,1.5,0,0,1,.56.56,2.8,2.8,0,0,1,.29,1Z"/><polygon class="cls-7" points="25.26 25.85 25.26 26.71 25.27 26.71 26.29 26.12 26.29 26.12 26.29 25.26 26.29 25.26 25.26 25.85 25.26 25.85"/><path class="cls-7" d="M25.26,26.84l-.11-.07v-1l.05,0,1.09-.63.11.07v1l0,0Zm.11-.93v.62l.81-.47v-.62Z"/><rect class="cls-7" x="27.56" y="23.9" width="0.22" height="0.86"/><path class="cls-8" d="M45.08,16.48l-.23.15h0a5.33,5.33,0,0,1-1.32-1.17,4.32,4.32,0,0,1-.76-2.05h0L42,13h0l-2.77,1.6,0-.21-.58,0h0l-.59.14h0v.77h0l.77.44h0l3-1.71h0a4.77,4.77,0,0,0,.72,1.94,4.88,4.88,0,0,0,1.78,1.56l.67.39h0l1-.55h0v-.77h0l-.89,0Z"/><path class="cls-7" d="M45,18l-.05,0-.68-.39A5.39,5.39,0,0,1,42.47,16a5.08,5.08,0,0,1-.7-1.85l-2.9,1.67,0,0L38,15.28v-.91l.69-.16.7.06,0,.11L42,12.86l0,0,.82.47v.06a4.25,4.25,0,0,0,.74,2,5.28,5.28,0,0,0,1.24,1.11l.22-.13h0l1,0v.93l-.05,0Zm-3.18-4.11.09,0v.06a4.77,4.77,0,0,0,.7,1.9,5,5,0,0,0,1.75,1.53l.62.36.86-.5v-.62l-.76,0-.26.16-.05,0a5.56,5.56,0,0,1-1.35-1.19,4.47,4.47,0,0,1-.77-2L42,13.08l-2.91,1.68.06-.32-.46,0-.49.11v.65l.67.38Z"/><path class="cls-9" d="M42.77,12.63h0a4.36,4.36,0,0,0,.76,2,6,6,0,0,0,1.77,1.44l.66.38h0l-1,.55h0l-.67-.38a5.07,5.07,0,0,1-1.78-1.56,4.76,4.76,0,0,1-.72-1.95h0l-3,1.72h0l-.77-.44h0L42,12.19h0Z"/><path class="cls-7" d="M45,17.18l0,0-.67-.38a5.28,5.28,0,0,1-1.82-1.59,5.08,5.08,0,0,1-.7-1.85L38.87,15l-.06,0L38,14.5v-.12l.05,0L42,12.08l0,0,.82.47v.06a4.3,4.3,0,0,0,.74,2A5.85,5.85,0,0,0,45.34,16l.72.41v.12l-.05,0Zm-3.17-4.12.09,0v.05a4.66,4.66,0,0,0,.7,1.9,4.89,4.89,0,0,0,1.75,1.53L45,17l.76-.44-.52-.3a6,6,0,0,1-1.79-1.46,4.45,4.45,0,0,1-.78-2.06L42,12.3l-3.7,2.15.57.33Z"/><polygon class="cls-7" points="38.87 14.89 38.87 15.66 38.87 15.66 40.93 14.48 40.93 14.47 40.93 13.7 40.92 13.7 38.87 14.89 38.87 14.89"/><path class="cls-7" d="M38.87,15.77l-.1,0v-.88l0,0,2.1-1.22.1.06v.88l0,0Zm.09-.83v.56l1.87-1.08v-.55Z"/><polygon class="cls-7" points="45.01 17.07 45.01 17.84 45.02 17.84 45.97 17.29 45.97 17.29 45.97 16.52 45.96 16.52 45.01 17.06 45.01 17.07"/><path class="cls-7" d="M45,18l-.09-.05V17l0,0,1-.58.1.06v.89l-.05,0Zm.1-.83v.55l.76-.44v-.55Z"/><rect class="cls-7" x="41.75" y="13.17" width="0.19" height="0.78"/><rect class="cls-7" x="43.97" y="16.51" width="0.19" height="0.78"/><polygon class="cls-7" points="36.99 17.39 36.66 18.18 36.65 18.18 36.18 17.57 36.18 17.56 36.52 16.77 36.53 16.77 36.99 17.39 36.99 17.39"/><path class="cls-7" d="M36.6,18.29l0-.05-.46-.6-.05-.05,0-.07.37-.85h.13l0,.05.5.66,0,.06-.37.85Zm-.29-.74.32.42.24-.57L36.55,17Z"/><path class="cls-8" d="M39.53,20.18l-2-2.61h0l.15-.36h0s.2,0,0-.08-1.18-.36-1.21-.36h0l-.34.79h0l3,3.94h0l1.24-.14h0l.34-.8h0l-1-.67h0l-.23.27Z"/><path class="cls-7" d="M39.16,21.62l0,0-3-3.94-.05-.05,0-.07.35-.84h0l.05,0,0,0c.16,0,1,.29,1.2.36s.15.06.13.17a.14.14,0,0,1-.13.11l-.11.25L39.53,20l.16-.2h.09l1.14.74,0,.09-.37.86h-.07Zm-2.85-4.07,2.94,3.85,1.12-.12.28-.66-.87-.56-.19.23h-.11l0-.05-2-2.65.17-.4-1-.29Z"/><path class="cls-9" d="M40.78,20.58l-1.24.14h0l-3-3.95h0l1.24-.14h0l3,3.95Z"/><path class="cls-7" d="M40.55,21.86m-1.06-1,0,0-3.05-4,.05-.11h.06l1.31-.15,0,.06,3,4,0,.12H40.8Zm-2.76-4,2.86,3.75,1-.11-2.86-3.75Z"/><rect class="cls-7" x="36.83" y="18.25" width="0.87" height="0.22" transform="translate(5.73 45.41) rotate(-66.85)"/></g></svg>