<?xml version="1.0" encoding="UTF-8" standalone="no"?>
<svg
   id="Warstwa_1"
   data-name="Warstwa 1"
   viewBox="0 0 148 148"
   version="1.1"
   sodipodi:docname="6.svg"
   inkscape:version="1.1 (c68e22c387, 2021-05-23)"
   xmlns:inkscape="http://www.inkscape.org/namespaces/inkscape"
   xmlns:sodipodi="http://sodipodi.sourceforge.net/DTD/sodipodi-0.dtd"
   xmlns:xlink="http://www.w3.org/1999/xlink"
   xmlns="http://www.w3.org/2000/svg"
   xmlns:svg="http://www.w3.org/2000/svg">
  <sodipodi:namedview
     id="namedview4300"
     pagecolor="#ffffff"
     bordercolor="#666666"
     borderopacity="1.0"
     inkscape:pageshadow="2"
     inkscape:pageopacity="0.0"
     inkscape:pagecheckerboard="0"
     showgrid="false"
     inkscape:zoom="5.4864865"
     inkscape:cx="73.908867"
     inkscape:cy="73.908867"
     inkscape:window-width="1920"
     inkscape:window-height="1001"
     inkscape:window-x="-9"
     inkscape:window-y="-9"
     inkscape:window-maximized="1"
     inkscape:current-layer="Warstwa_1" />
  <defs
     id="defs4251">
    <style
       id="style4207">.cls-1{opacity:0.15;fill:url(#Gradient_bez_nazwy);}.cls-1,.cls-11,.cls-8{isolation:isolate;}.cls-2{fill:url(#Gradient_bez_nazwy_2);}.cls-3{fill:url(#Gradient_bez_nazwy_3);}.cls-4{fill:url(#Gradient_bez_nazwy_4);}.cls-5{fill:url(#Gradient_bez_nazwy_85);}.cls-6{fill:url(#Gradient_bez_nazwy_84);}.cls-7{fill:url(#Gradient_bez_nazwy_80);}.cls-9{fill:#de000a;}.cls-10,.cls-18,.cls-19{fill:none;stroke:#818696;stroke-linecap:round;stroke-linejoin:round;opacity:0.5;}.cls-10{stroke-width:0.99px;}.cls-11{opacity:0.3;fill:url(#Gradient_bez_nazwy_96);}.cls-12{fill:url(#Gradient_bez_nazwy_85-2);}.cls-13{fill:url(#Gradient_bez_nazwy_84-2);}.cls-14{fill:url(#Gradient_bez_nazwy_80-2);}.cls-15{fill:url(#Gradient_bez_nazwy_85-3);}.cls-16{fill:url(#Gradient_bez_nazwy_84-3);}.cls-17{fill:url(#Gradient_bez_nazwy_80-3);}.cls-19{stroke-width:0.98px;}</style>
    <linearGradient
       id="Gradient_bez_nazwy"
       x1="114.64"
       y1="1301.03"
       x2="34.99"
       y2="1243.39"
       gradientTransform="translate(0 -1165.59)"
       gradientUnits="userSpaceOnUse">
      <stop
         offset="0"
         id="stop4209" />
      <stop
         offset="1"
         id="stop4211" />
    </linearGradient>
    <linearGradient
       id="Gradient_bez_nazwy_2"
       x1="79.2"
       y1="1272.64"
       x2="8"
       y2="1272.64"
       gradientTransform="translate(0 -1165.59)"
       gradientUnits="userSpaceOnUse">
      <stop
         offset="0"
         stop-color="#840016"
         id="stop4214" />
      <stop
         offset="1"
         stop-color="#510a18"
         id="stop4216" />
    </linearGradient>
    <linearGradient
       id="Gradient_bez_nazwy_3"
       x1="-132.89"
       y1="1272.64"
       x2="-131.73"
       y2="1272.64"
       gradientTransform="translate(0 -1165.59)"
       gradientUnits="userSpaceOnUse">
      <stop
         offset="0"
         stop-color="#fc2632"
         id="stop4219" />
      <stop
         offset="1"
         stop-color="#f70e28"
         id="stop4221" />
    </linearGradient>
    <linearGradient
       id="Gradient_bez_nazwy_4"
       x1="114.61"
       y1="1278.82"
       x2="34.97"
       y2="1221.18"
       gradientTransform="translate(0 -1165.59)"
       gradientUnits="userSpaceOnUse">
      <stop
         offset="0"
         stop-color="#cb0c18"
         id="stop4224" />
      <stop
         offset="1"
         stop-color="#670a18"
         id="stop4226" />
    </linearGradient>
    <linearGradient
       id="Gradient_bez_nazwy_85"
       x1="43.39"
       y1="109.33"
       x2="69.04"
       y2="109.33"
       gradientTransform="matrix(1, 0, 0, -1, 0, 147)"
       gradientUnits="userSpaceOnUse">
      <stop
         offset="0"
         stop-color="#989aad"
         id="stop4229" />
      <stop
         offset="1"
         stop-color="#98a0b7"
         id="stop4231" />
    </linearGradient>
    <linearGradient
       id="Gradient_bez_nazwy_84"
       x1="104.53"
       y1="109.56"
       x2="104.96"
       y2="109.56"
       gradientTransform="matrix(1, 0, 0, -1, 0, 147)"
       gradientUnits="userSpaceOnUse">
      <stop
         offset="0"
         stop-color="#e7e9e9"
         id="stop4234" />
      <stop
         offset="1"
         stop-color="#98aacd"
         id="stop4236" />
    </linearGradient>
    <linearGradient
       id="Gradient_bez_nazwy_80"
       x1="88.44"
       y1="117.88"
       x2="58.38"
       y2="139.63"
       gradientTransform="matrix(1, 0, 0, -1, 0, 147)"
       gradientUnits="userSpaceOnUse">
      <stop
         offset="0"
         stop-color="#cdd3db"
         id="stop4239" />
      <stop
         offset="1"
         stop-color="#acb0c2"
         id="stop4241" />
    </linearGradient>
    <linearGradient
       id="Gradient_bez_nazwy_96"
       x1="104.16"
       y1="67.06"
       x2="43.6"
       y2="110.87"
       gradientTransform="matrix(1, 0, 0, 1, 0, 0)"
       xlink:href="#Gradient_bez_nazwy" />
    <linearGradient
       id="Gradient_bez_nazwy_85-2"
       x1="19.3"
       y1="71.69"
       x2="44.3"
       y2="71.69"
       xlink:href="#Gradient_bez_nazwy_85" />
    <linearGradient
       id="Gradient_bez_nazwy_84-2"
       x1="79.62"
       y1="71.81"
       x2="80.06"
       y2="71.81"
       xlink:href="#Gradient_bez_nazwy_84" />
    <linearGradient
       id="Gradient_bez_nazwy_80-2"
       x1="63.68"
       y1="79.66"
       x2="34.03"
       y2="101.1"
       xlink:href="#Gradient_bez_nazwy_80" />
    <linearGradient
       id="Gradient_bez_nazwy_85-3"
       x1="68.23"
       y1="71.64"
       x2="94.01"
       y2="71.64"
       xlink:href="#Gradient_bez_nazwy_85" />
    <linearGradient
       id="Gradient_bez_nazwy_84-3"
       x1="129.53"
       y1="71.65"
       x2="129.96"
       y2="71.65"
       xlink:href="#Gradient_bez_nazwy_84" />
    <linearGradient
       id="Gradient_bez_nazwy_80-3"
       x1="113.37"
       y1="79.66"
       x2="83.27"
       y2="101.43"
       xlink:href="#Gradient_bez_nazwy_80" />
  </defs>
  <polygon
     class="cls-1"
     points="8 106 74 144.5 139.9 106 74 67.6 8 106"
     id="polygon4253" />
  <polygon
     class="cls-2"
     points="79.2 119.2 8 83.8 8 91.8 74 130.3 79.2 119.2"
     id="polygon4255"
     style="fill:#040f43;fill-opacity:1" />
  <polygon
     class="cls-3"
     points="139.9 91.4 139.9 83.8 74 120.4 74 130.3 139.9 91.4"
     id="polygon4257"
     style="fill:#041b88;fill-opacity:1" />
  <polygon
     class="cls-4"
     points="7.99 83.8 73.91 122.3 139.91 83.8 74.11 45.4 7.99 83.8"
     id="polygon4259"
     style="fill:#4a2ec4;fill-opacity:1" />
  <polygon
     class="cls-5"
     points="73.53 31.37 48.21 18.09 48.21 42.58 73.38 57.25 73.86 55.9 73.53 31.37"
     id="polygon4261" />
  <polygon
     class="cls-6"
     points="98 42.15 98 17.99 73 31.52 73.03 56.9 98 42.15"
     id="polygon4263" />
  <polygon
     class="cls-7"
     points="48.21 18.02 73.21 32.6 97.98 18.02 73.21 3.42 48.21 18.02"
     id="polygon4265" />
  <g
     class="cls-8"
     id="g4269"
     style="fill:#4a2ec4;fill-opacity:1">
    <path
       class="cls-9"
       d="M73.8,22.55l-1.25-.72a.42.42,0,0,1-.24-.26.34.34,0,0,1,.06-.27l1.37-1.74-4.28-2.47-3,.78a1.28,1.28,0,0,1-.45,0,1,1,0,0,1-.46-.13l-1.25-.72L78.14,13.6l1.64,1Zm.66-3.91,2.26-2.88a6.78,6.78,0,0,1,.73-.81l-.76.24-.65.19-5,1.29Z"
       id="path4267"
       style="fill:#4a2ec4;fill-opacity:1" />
  </g>
  <polygon
     class="cls-10"
     points="52.39 18.02 73.21 30.16 94.04 18.02 73.21 5.86 52.39 18.02"
     id="polygon4271" />
  <path
     class="cls-11"
     d="M123.37,89.43,98.29,74.79l.14-.08L73.29,60,48.16,74.71l.09.05L23.12,89.43l25.13,14.65,25-14.57,25,14.57Z"
     id="path4273" />
  <polygon
     class="cls-12"
     points="48.74 69.54 24 56.41 24 79.6 48.13 94.2 49 93.09 48.74 69.54"
     id="polygon4275" />
  <polygon
     class="cls-13"
     points="73.1 79.61 73.1 56.17 48.1 69.66 48.13 94.2 73.1 79.61"
     id="polygon4277" />
  <polygon
     class="cls-14"
     points="23.99 56.42 48.49 70.69 73.1 56.37 48.49 42.04 23.99 56.42"
     id="polygon4279" />
  <polygon
     class="cls-15"
     points="98.4 69.52 73.08 56.25 73.08 79.73 98.01 94.48 98.86 93.22 98.4 69.52"
     id="polygon4281" />
  <polygon
     class="cls-16"
     points="123 79.86 122.98 56.21 98 69.72 98 94.49 123 79.86"
     id="polygon4283" />
  <polygon
     class="cls-17"
     points="73.08 56.25 97.89 70.9 122.93 56.2 98.21 41.58 73.08 56.25"
     id="polygon4285" />
  <g
     class="cls-8"
     id="g4289"
     style="fill:#4a2ec4;fill-opacity:1">
    <path
       class="cls-9"
       d="M53.23,53.14a7.39,7.39,0,0,1,1.42,1,2.11,2.11,0,0,1,.58.93,1,1,0,0,1-.18.83,2.78,2.78,0,0,1-.88.73,3.37,3.37,0,0,1-.77.33,5,5,0,0,1-.93.16,6.38,6.38,0,0,1-2.21-.27c1.09,1,1,1.79-.13,2.47a4.8,4.8,0,0,1-1.37.52,5.89,5.89,0,0,1-1.58.12,6.89,6.89,0,0,1-1.68-.29A7.83,7.83,0,0,1,43.81,59l-3.58-2.06L50,51.26ZM45,58.21a4.31,4.31,0,0,0,1,.45,3.7,3.7,0,0,0,.95.16,3.36,3.36,0,0,0,.85-.1,3.5,3.5,0,0,0,.74-.31c.46-.26.66-.56.61-.9s-.41-.69-1.09-1.08l-2-1.14-3.09,1.79Zm5.3-5.32-3,1.76,1.59.92a4.57,4.57,0,0,0,1.91.65,2.77,2.77,0,0,0,1.63-.37c.54-.31.77-.62.69-.94s-.44-.67-1.11-1.06Z"
       id="path4287"
       style="fill:#4a2ec4;fill-opacity:1" />
  </g>
  <g
     class="cls-8"
     id="g4293"
     style="fill:#4a2ec4;fill-opacity:1">
    <path
       class="cls-9"
       d="M99.57,59.86a.21.21,0,0,1,.13.19l-.06.77A9.65,9.65,0,0,1,97,60.61a8.93,8.93,0,0,1-2.52-1,5.07,5.07,0,0,1-1.6-1.36,2.31,2.31,0,0,1-.46-1.48,2.69,2.69,0,0,1,.65-1.49,6.11,6.11,0,0,1,1.72-1.38,9.67,9.67,0,0,1,2.42-1,10.66,10.66,0,0,1,2.62-.35,10.4,10.4,0,0,1,2.61.29,9.07,9.07,0,0,1,2.37.93,4.94,4.94,0,0,1,1.56,1.31,2.46,2.46,0,0,1,.5,1.37l-1.28.13h-.27a.67.67,0,0,1-.26-.09.39.39,0,0,1-.19-.26,2.43,2.43,0,0,0-.57-1,3.87,3.87,0,0,0-.9-.67,5.57,5.57,0,0,0-1.56-.61,6.42,6.42,0,0,0-1.76-.18,7.92,7.92,0,0,0-1.83.29,7.59,7.59,0,0,0-1.8.76,4.83,4.83,0,0,0-1.32,1.05A2,2,0,0,0,94.66,57,1.56,1.56,0,0,0,95,58a3,3,0,0,0,1,.87,7.51,7.51,0,0,0,.79.41,4.45,4.45,0,0,0,.75.26,6.33,6.33,0,0,0,.78.16,7.3,7.3,0,0,0,.86.07A.72.72,0,0,1,99.57,59.86Z"
       id="path4291"
       style="fill:#4a2ec4;fill-opacity:1" />
  </g>
  <polygon
     class="cls-18"
     points="77.62 56.13 98.05 68.34 119.5 56.13 98.25 43.91 77.62 56.13"
     id="polygon4295" />
  <polygon
     class="cls-19"
     points="28.35 56.26 48.8 68.19 69.26 56.26 48.8 44.32 28.35 56.26"
     id="polygon4297" />
</svg>
