<svg xmlns:xlink="http://www.w3.org/1999/xlink" xmlns="http://www.w3.org/2000/svg" version="1.1" viewBox="0 0 442 335" height="335px" width="442px">
    
    <title>b288b96bf3170fad97875dabbd94e671 (1)</title>
    <desc>Created with Sketch.</desc>
    <defs>
        <linearGradient id="linearGradient-1" y2="41.2926085%" x2="73.8475941%" y1="115.521547%" x1="45.4558269%">
            <stop offset="0%" stop-color="#FF7A5E"></stop>
            <stop offset="100%" stop-color="#FFBDB0"></stop>
        </linearGradient>
        <radialGradient id="radialGradient-2" gradientTransform="translate(0.299138,0.133635),scale(1.000000,0.476258),rotate(29.689655),translate(-0.299138,-0.133635)" r="58.7551395%" fy="13.3634955%" fx="29.9138175%" cy="13.3634955%" cx="29.9138175%">
            <stop offset="0%" stop-color="#3162AE"></stop>
            <stop offset="100%" stop-color="#080D56"></stop>
        </radialGradient>
        <radialGradient id="radialGradient-3" gradientTransform="translate(0.299138,0.133635),scale(0.879064,1.000000),rotate(13.425273),translate(-0.299138,-0.133635)" r="59.6950784%" fy="13.3634955%" fx="29.9138175%" cy="13.3634955%" cx="29.9138175%">
            <stop offset="0%" stop-color="#3162AE"></stop>
            <stop offset="100%" stop-color="#080D56"></stop>
        </radialGradient>
        <linearGradient id="linearGradient-4" y2="46.3640945%" x2="93.5030053%" y1="77.3595313%" x1="41.7104768%">
            <stop offset="0%" stop-color="#FF7A5E"></stop>
            <stop offset="100%" stop-color="#FFBDB0"></stop>
        </linearGradient>
        <linearGradient id="linearGradient-5" y2="43.7058276%" x2="93.5030053%" y1="97.3625093%" x1="41.7104768%">
            <stop offset="0%" stop-color="#B9543F"></stop>
            <stop offset="100%" stop-color="#E87C67"></stop>
        </linearGradient>
        <linearGradient id="linearGradient-6" y2="41.2926085%" x2="85.351848%" y1="115.521547%" x1="43.2636846%">
            <stop offset="0%" stop-color="#FF7A5E"></stop>
            <stop offset="100%" stop-color="#FFBDB0"></stop>
        </linearGradient>
        <linearGradient id="linearGradient-7" y2="41.4228246%" x2="93.5030053%" y1="114.541694%" x1="41.7104768%">
            <stop offset="0%" stop-color="#B9543F"></stop>
            <stop offset="100%" stop-color="#E87C67"></stop>
        </linearGradient>
        <linearGradient id="linearGradient-8" y2="41.2926085%" x2="93.5030053%" y1="115.521547%" x1="41.7104768%">
            <stop offset="0%" stop-color="#FF7A5E"></stop>
            <stop offset="100%" stop-color="#FFBDB0"></stop>
        </linearGradient>
        <linearGradient id="linearGradient-9" y2="-68.1918615%" x2="63.2365615%" y1="184.118947%" x1="14.2491306%">
            <stop offset="17%" stop-opacity="0.27" stop-color="#26292C"></stop>
            <stop offset="56%" stop-opacity="0.36" stop-color="#25272A"></stop>
            <stop offset="70%" stop-opacity="0.66" stop-color="#202223"></stop>
            <stop offset="78%" stop-color="#1B1B1B"></stop>
        </linearGradient>
        <linearGradient id="linearGradient-10" y2="58.2082743%" x2="19.5461475%" y1="51.646249%" x1="27.4208787%">
            <stop offset="0%" stop-opacity="0.821978802" stop-color="#2E7DE7"></stop>
            <stop offset="100%" stop-opacity="0.737461757" stop-color="#00357E"></stop>
        </linearGradient>
        <linearGradient id="linearGradient-11" y2="42.6931962%" x2="43.5982284%" y1="-138.147403%" x1="221.230735%">
            <stop offset="27%" stop-color="#8E9BAA"></stop>
            <stop offset="46%" stop-color="#97A3B1"></stop>
            <stop offset="75%" stop-color="#AEB8C4"></stop>
            <stop offset="100%" stop-color="#C7CED7"></stop>
        </linearGradient>
    </defs>
    <g fill-rule="evenodd" fill="none" stroke-width="1" stroke="none" id="Page-1">
        <g fill-rule="nonzero" transform="translate(-50.000000, -34.000000)" id="Artboard">
            <g transform="translate(50.000000, 34.000000)" id="b288b96bf3170fad97875dabbd94e671-(1)">
                <g fill="#DADDE5" transform="translate(108.000000, 0.000000)" opacity="0.5" id="Group">
                    <path id="Path" d="M128.239,318.383 C146.149,320.534 165.282,317.301 178.402,304.919 C193.256,290.901 200.232,268.729 218.149,258.932 C235.67,249.341 257.534,254.931 276.97,250.332 C294.685,246.138 309.861,233.331 318.398,217.249 C340.409,175.772 316.028,150.516 328.462,107.707 C345.637,48.6177 312.734,0 252.164,0 C191.593,0 196.705,46.6341 145.858,71.0459 C108.47,88.999 45.783,70.3 15.872,118.918 C-7.056,156.183 -7.795,212.035 31.33,235.021 C79.432,263.274 51.419,309.167 128.239,318.383 Z"></path>
                </g>
                <path fill="url(#linearGradient-1)" id="Path" d="M215.902,200.183 C215.902,200.183 201.161,207.767 195.848,189.647 C190.535,171.527 211.697,176.614 208.564,165.615 C205.43,154.616 194.231,141.891 209.735,134.561 C225.239,127.232 249.363,126.205 248.227,147.277 C247.092,168.349 234.34,199.011 215.902,200.183 Z"></path>
                <path fill="url(#radialGradient-2)" id="Path" d="M308.753995,44.1622 L308.753995,138.367 C308.753995,138.819 308.861,139.264 309.068,139.666 C309.275,140.067 309.575,140.414 309.943,140.676 C310.311,140.938 310.736,141.109 311.184,141.173 C311.631,141.237 312.087,141.194 312.514,141.046 L326.755,136.124 C327.321,135.93 327.81,135.561 328.153,135.072 C328.495,134.582 328.674,133.996 328.663,133.399 L328.663,71.3646 C328.662,70.8273 328.815,70.3008 329.103,69.8472 C329.391,69.3935 329.802,69.0314 330.289,68.8033 L364.376,58.3765 C364.861,58.1475 365.272,57.7852 365.56,57.3317 C365.848,56.8783 366.001006,56.3523 366.001006,55.8152 L366.001006,23.8354 C366.002,23.3518 365.878,22.8762 365.643,22.4538 C365.407,22.0315 365.068,21.6764 364.656,21.4224 C364.245,21.1684 363.775,21.0239 363.292,21.0027 C362.809,20.9815 362.328,21.0843 361.896,21.3013 L310.316,41.6282 C309.846,41.8641 309.451,42.226 309.175,42.6735 C308.899,43.121 308.753,43.6365 308.753995,44.1622 Z"></path>
                <path fill="url(#radialGradient-3)" id="Path" d="M302.214,238.893 L428.599,188.312 C431.442,187.431 433.949,185.702 435.782,183.356 C437.614,181.01 438.686,178.16 438.853,175.188 C439.607,161.246 440.86,136.841 440.86,127.958 C440.86,115.306 445.629,68.1129 403.404,68.1129 L262.187,106.905 L246.747,238.893 L302.214,238.893 Z"></path>
                <path fill="#434D59" id="Path" d="M304.103013,143.09 L304.103013,238.893 L231.715,238.893 L231.715,143.09 C231.715,136.208 233.677,129.468 237.372,123.662 C241.067,117.856 246.341,113.223 252.576,110.309 C258.81,107.394 265.747,106.318 272.571,107.206 C279.396,108.095 285.826,110.911 291.106,115.324 C291.924,116.015 292.723,116.741 293.486,117.504 C296.854,120.859 299.526,124.847 301.348,129.237 C303.17,133.628 304.107,138.336 304.103013,143.09 Z"></path>
                <path fill="#5EF46B" id="Path" d="M304.103,184.407 L304.103,238.902 L272.314,238.902 C270.498,229.139 279.58,224.043 280.816,213.898 C282.405,201.182 274.694,206.314 267.283,191.191 C264.258,185.024 265.466,180.211 268.027,176.659 C271.778,171.41 273.286,170.302 284.757,170.302 C296.229,170.302 303.985,179.384 303.985,179.384 L304.103,184.407 Z"></path>
                <path fill="url(#linearGradient-4)" id="Path" d="M243.423,202 C243.423,202 320.452,247.158 369.825,242.472 L340.516,301 C340.516,301 247.873,282.699 216.62,252.49 L243.423,202 Z"></path>
                <path fill="url(#linearGradient-5)" id="Path" d="M274.576,247.622 C277.219,240.81 286.283,238.012 294.812,241.364 C303.34,244.715 308.118,252.962 305.475,259.774 C302.832,266.586 293.767,269.393 285.239,266.041 C276.71,262.69 271.933,254.443 274.576,247.622 Z"></path>
                <path fill="url(#linearGradient-6)" id="Path" d="M108.964,111.019 C108.964,111.019 159.89,74.4982 170.962,41.4829 L200.108,76.9686 C200.108,76.9686 161.988,131.155 133.678,142.59 L108.964,111.019 Z"></path>
                <path fill="url(#linearGradient-7)" id="Path" d="M147.11,104.044 C143.477,100.411 144.286,93.7988 148.863,89.2847 C153.441,84.7707 160.09,84.0622 163.713,87.6953 C167.337,91.3283 166.538,97.9404 161.961,102.454 C157.383,106.969 150.725,107.686 147.11,104.044 Z"></path>
                <path fill="url(#linearGradient-8)" id="Path" d="M186.057,280.701 C192.006,280.701 196.829,275.878 196.829,269.929 C196.829,263.979 192.006,259.157 186.057,259.157 C180.108,259.157 175.285,263.979 175.285,269.929 C175.285,275.878 180.108,280.701 186.057,280.701 Z"></path>
                <path fill="#DADDE5" id="Path" d="M231.1,184.832 L189.656,191.404 C189.2,191.478 188.767,191.656 188.393,191.926 C188.018,192.197 187.712,192.551 187.498,192.96 C187.285,193.37 187.17,193.824 187.163659,194.285 C187.157,194.747 187.258,195.204 187.46,195.62 L207.948,237.51 C208.27,238.167 208.825,238.682 209.505,238.953 C210.185,239.225 210.941,239.233 211.628,238.978 L261.571,220.317 L231.1,184.832 Z"></path>
                <path fill="#F5F5F9" id="Path" d="M263.735,208.247 L277.117,207.387 L271.693,224.506 C271.586,224.846 271.424,225.167 271.213,225.454 C270.818,225.991 270.265,226.39 269.631,226.596 C268.998,226.802 268.316,226.805 267.68,226.604 L226.343,213.509 C225.938,213.379 225.563,213.171 225.239,212.895 C224.915,212.619 224.649,212.281 224.457,211.902 C224.264,211.522 224.149,211.108 224.118,210.684 C224.087,210.259 224.141,209.833 224.276,209.43 L224.94,207.427 L229.747,192.581 L229.911,192.729 L239.418,201.37 L248.078,209.248 L263.735,208.247 Z"></path>
                <path fill="#DADDE5" id="Path" d="M277.756,205.384 L277.66,205.676 L277.117,207.387 L263.735,208.247 L248.098,209.264 L239.439,201.385 L229.932,192.744 L229.768,192.597 L229.853,192.31 L230.088,192.268 L237.265,190.95 L275.338,202.84 C275.532,202.902 275.72,202.983 275.897,203.083 L277.498,205.053 L277.756,205.384 Z"></path>
                <path fill="#C7CED7" id="Path" d="M306.161,179.257 L278.665,182.721 L280.806,163.779 L282.83,145.82 L301.999,138.116 C305.279,143.273 306.191,155.72 306.357,165.583 C306.471,173.191 306.161,179.257 306.161,179.257 Z"></path>
                <path fill="#F5F5F9" id="Path" d="M275.81,208.855 L202.182,188.4 C202.045,188.363 201.915,188.299 201.803,188.211 C201.69,188.124 201.596,188.015 201.525,187.89 C201.455,187.766 201.41,187.629 201.394,187.487 C201.377,187.345 201.389,187.202 201.429,187.064 L222.758,111.493 C222.806,111.32 222.898,111.161 223.024,111.032 C223.149,110.903 223.306,110.807 223.478,110.755 C223.65,110.702 223.833,110.693 224.01,110.729 C224.186,110.766 224.351,110.846 224.489,110.962 L224.878,111.201 L282.829,145.819 L280.007,171.182 L275.81,208.855 Z"></path>
                <path fill="#C7CED7" id="Path" d="M275.811,208.856 L202.203,188.313 C201.934,188.226 201.706,188.041 201.565,187.795 C201.424,187.549 201.379,187.26 201.439,186.983 L207.298,166.272 L223.152,159.185 L245.275,150.228 L261.24,159.595 L280.769,164.464 L275.811,208.856 Z"></path>
                <path fill="#DADDE5" id="Path" d="M280.007,171.183 L264.772,177.366 C263.57,177.857 262.228,177.882 261.008,177.436 C259.789,176.99 258.779,176.104 258.178,174.953 L224.879,111.201 L282.83,145.82 L280.007,171.183 Z"></path>
                <path fill="#F5F5F9" id="Path" d="M305.41,231.694 L278.421,235.4 C277.818,235.469 277.213,235.296 276.738,234.919 C276.264,234.542 275.958,233.992 275.889,233.389 L274.956,224.569 L270.813,186.046 C270.758,185.46 270.931,184.874 271.296,184.412 C271.661,183.95 272.19,183.647 272.773,183.565 L291.976,181.037 L306.156,179.246 L306.136,181.154 C306.148,181.455 306.134,181.783 306.136,182.14 L306.125,182.877 L306.123,183.378 L306.127,184.119 L306.046,189.019 L306.036,190.087 L306.039,190.624 L306.03,191.719 L306.021,192.813 C305.966,197.763 305.972,202.682 305.98,204.973 C305.984,205.74 305.948,207.617 305.9,210.026 C305.78,218.008 305.41,231.694 305.41,231.694 Z"></path>
                <path fill="#C7CED7" id="Path" d="M271.264,225.428 C270.869,225.964 270.316,226.363 269.682,226.569 C269.049,226.776 268.366,226.778 267.731,226.577 L226.394,213.482 C225.989,213.353 225.614,213.144 225.29,212.868 C224.966,212.592 224.7,212.254 224.508,211.875 C224.315,211.495 224.2,211.081 224.169,210.657 C224.138,210.233 224.191,209.806 224.326,209.403 L224.991,207.4 L239.459,201.348 L248.118,209.227 L263.755,208.211 L271.264,225.428 Z"></path>
                <path fill="#DADDE5" id="Path" d="M270.854,186.025 C270.799,185.439 270.971,184.854 271.336,184.392 C271.702,183.93 272.231,183.626 272.814,183.545 L291.976,181.037 L306.156,179.246 L306.136,181.154 L306.136,182.14 L306.125,182.877 L306.123,183.378 L306.127,184.119 L306.046,189.019 L306.036,190.087 L306.039,190.624 L306.03,191.719 L306.021,192.813 L305.9,210.026 L270.854,186.025 Z"></path>
                <path fill="#C7CED7" id="Path" d="M305.409,231.694 L278.42,235.4 C277.818,235.469 277.213,235.296 276.738,234.919 C276.263,234.542 275.958,233.992 275.888,233.389 L274.956,224.569 L296.815,203.811 L305.941,210.081 C305.779,218.008 305.409,231.694 305.409,231.694 Z"></path>
                <path fill="#F5F5F9" id="Path" d="M306.327,165.597 L303.243,168.442 C302.737,168.907 302.119,169.233 301.45,169.388 C300.78,169.543 300.082,169.522 299.423,169.327 L280.795,163.758 L282.819,145.799 L301.617,129.308 C305.791,135.808 306.16,155.734 306.327,165.597 Z"></path>
                <path fill="#C97360" id="Path" d="M91.5614,202.188 L105.14,202.188 L105.281,197.651 C105.281,197.651 108.831,198.657 111.336,197.651 C113.143,196.914 114.418,193.236 114.495,187.988 C114.566,183.201 114.265,181.368 113.854,179.209 C111.528,179.446 108.632,176.998 106.37,176.127 C103.909,175.178 101.372,179.247 100.994,182.234 C100.923,183.053 100.605,183.832 100.08,184.466 C99.556,185.101 98.8509,185.56 98.059,185.783 C97.1555,182.753 94.7782,182.58 93.2595,185.61 C91.7408,188.641 95.7778,190.429 95.7778,190.429 C95.5407,191.781 93.3877,193.345 92.1894,194.107 C92.0569,194.194 91.8971,194.228 91.7408,194.203 C91.8626,196.023 91.5166,200.233 91.5614,202.188 Z"></path>
                <path fill="#975648" id="Path" d="M99.5328,194.216 C99.5328,194.216 100.103,197.555 101.66,198.952 C102.658,199.81 103.854,200.407 105.14,200.688 L105.281,197.158 C104.199,196.888 103.164,196.456 102.211,195.876 L99.5328,194.216 Z"></path>
                <path fill="#434D59" id="Path" d="M88.8445,181.919 C89.2995,184.156 92.2343,195.267 92.2343,195.267 C92.2343,195.267 96.1752,191.781 96.4251,190.371 C96.4251,190.371 92.8559,187.494 93.7914,185.335 C94.5796,183.515 96.6237,183.477 97.822,185.405 C97.9141,185.561 98.0397,185.695 98.1897,185.796 C98.3397,185.898 98.5103,185.965 98.6893,185.992 C98.8683,186.02 99.0512,186.007 99.2247,185.956 C99.3983,185.904 99.5583,185.815 99.6931,185.694 C100.856,184.694 101.63,183.317 101.878,181.804 C102.275,178.683 105.082,178.094 107.645,179.081 C110.088,179.984 112.703,180.326 115.296,180.08 C116.86,180.003 118.37,179.48 119.647,178.575 C121.954,176.652 122.774,171.052 118.84,167.681 C114.45,163.933 108.997,171.039 104.96,169.398 C100.923,167.758 97.3094,163.631 91.5038,167.822 C85.6983,172.013 88.287,179.177 88.8445,181.919 Z"></path>
                <path fill="#C97360" id="Path" d="M161.701,221.537 C161.701,221.537 170.819,218.333 172.658,214.578 C174.498,210.823 175.67,205.992 174.581,205.825 C173.491,205.658 169.628,213.22 168.423,212.65 C167.558,212.239 168.423,210.727 168.66,210.131 C169.205,208.6 169.775,206.78 169.487,206.69 C168.98,206.543 167.776,207.812 165.802,210.939 C163.828,214.066 159.529,217.5 159.529,217.5 L161.701,221.537 Z"></path>
                <path fill="#C7CED7" id="Path" d="M124.074,333.829 C124.074,333.829 123.267,336.732 113.943,330.766 C112.168,329.632 110.739,327.613 109.4,326.806 C103.633,323.378 101.262,323.525 101.858,320.93 C102.595,317.726 108.067,311.235 108.067,311.235 L114.956,313.016 C114.956,313.016 117.64,324.198 121.19,326.863 C124.74,329.529 126.272,329.984 124.074,333.829 Z"></path>
                <path fill="#C7CED7" id="Path" d="M0.459503,292.895 C0.459503,292.895 -2.2318,291.55 5.4128,283.546 C6.86739,282.021 9.11655,281.028 10.1739,279.842 C14.6594,274.812 14.9541,272.486 17.3891,273.576 C20.3944,274.915 25.7194,281.528 25.7194,281.528 L22.6436,287.936 C22.6436,287.936 11.1542,288.423 7.8606,291.396 C4.56695,294.369 3.81083,295.798 0.459503,292.895 Z"></path>
                <path fill="#434D59" id="Path" d="M19.4781,287.884 C19.4781,287.884 34.9339,304.942 43.1424,310.639 C48.6083,314.439 54.6125,317.29 59.9695,317.117 C62.691,317.073 65.3123,316.083 67.3834,314.317 C80.4555,303.25 85.082,285.347 86.1906,280.419 L111.463,279.855 L107.356,311.715 L115.622,315.432 C115.622,315.432 128.771,296.535 132.5,287.269 C136.23,278.003 137.627,268.001 130.648,262.81 C114.629,250.84 92.0858,252.128 92.0858,252.128 L65.1727,249.251 C58.297,260.978 55.0739,291.819 55.0739,291.819 L24.9568,280.663 L19.4781,287.884 Z"></path>
                <polygon points="86.1841 280.419 76.7196 280.419 82.8776 291.281" style="mix-blend-mode: multiply;" fill="url(#linearGradient-9)" id="Path"></polygon>
                <path fill="url(#linearGradient-10)" id="Path" d="M111.29,234.731 L100.275,252.641 C100.275,252.641 97.4042,255.281 87.0619,254.833 C76.7196,254.384 65.1726,249.251 65.1726,249.251 C65.1726,249.251 70.9397,200.052 96.4751,199.962 C98.5576,199.962 105.946,200.378 113.43,207.248 C118.134,211.566 131.296,225.311 133.141,225.311 C134.986,225.311 160.291,216.468 160.291,216.468 L165.027,221.044 C165.027,221.044 146.636,238.524 135.518,239.806 C124.401,241.088 111.29,234.731 111.29,234.731 Z"></path>
                <polygon points="111.29 234.731 100.384 228.611 106.805 242.03" style="mix-blend-mode: multiply;" fill="url(#linearGradient-11)" id="Path"></polygon>
            </g>
        </g>
    </g>
</svg>