<?xml version="1.0" encoding="UTF-8" standalone="no"?>
<!-- Generator: Adobe Illustrator 24.2.1, SVG Export Plug-In . SVG Version: 6.00 Build 0)  -->

<svg
   version="1.1"
   id="Warstwa_1"
   x="0px"
   y="0px"
   viewBox="0 0 148 148"
   style="enable-background:new 0 0 148 148;"
   xml:space="preserve"
   sodipodi:docname="8.svg"
   inkscape:version="1.1 (c68e22c387, 2021-05-23)"
   xmlns:inkscape="http://www.inkscape.org/namespaces/inkscape"
   xmlns:sodipodi="http://sodipodi.sourceforge.net/DTD/sodipodi-0.dtd"
   xmlns="http://www.w3.org/2000/svg"
   xmlns:svg="http://www.w3.org/2000/svg"><defs
   id="defs6282"><linearGradient
     id="linearGradient9157"
     inkscape:swatch="solid"><stop
       style="stop-color:#3d19d8;stop-opacity:1;"
       offset="0"
       id="stop9155" /></linearGradient></defs><sodipodi:namedview
   id="namedview6280"
   pagecolor="#ffffff"
   bordercolor="#666666"
   borderopacity="1.0"
   inkscape:pageshadow="2"
   inkscape:pageopacity="0.0"
   inkscape:pagecheckerboard="0"
   showgrid="false"
   inkscape:zoom="5.4864865"
   inkscape:cx="73.908867"
   inkscape:cy="73.908867"
   inkscape:window-width="1920"
   inkscape:window-height="1001"
   inkscape:window-x="-9"
   inkscape:window-y="-9"
   inkscape:window-maximized="1"
   inkscape:current-layer="Warstwa_1" />
<style
   type="text/css"
   id="style6130">
	.st0{opacity:0.15;fill:url(#SVGID_1_);enable-background:new    ;}
	.st1{fill:url(#SVGID_2_);}
	.st2{fill:url(#SVGID_3_);}
	.st3{fill:url(#SVGID_4_);}
	.st4{opacity:0.3;fill-rule:evenodd;clip-rule:evenodd;fill:url(#Prostokąt_1_1_);enable-background:new    ;}
	.st5{fill-rule:evenodd;clip-rule:evenodd;fill:url(#Prostokąt_1-2_1_);}
	.st6{fill-rule:evenodd;clip-rule:evenodd;fill:url(#Prostokąt_1-3_1_);}
	.st7{fill-rule:evenodd;clip-rule:evenodd;fill:url(#Prostokąt_1-4_1_);}
	.st8{fill-rule:evenodd;clip-rule:evenodd;fill:url(#Prostokąt_1-5_1_);}
	.st9{fill-rule:evenodd;clip-rule:evenodd;fill:url(#Prostokąt_1-6_1_);}
	.st10{fill-rule:evenodd;clip-rule:evenodd;fill:url(#Prostokąt_1-7_1_);}
	.st11{fill-rule:evenodd;clip-rule:evenodd;fill:url(#Prostokąt_1-8_1_);}
	.st12{fill-rule:evenodd;clip-rule:evenodd;fill:#F70E28;}
	.st13{fill:#820B18;}
	.st14{fill-rule:evenodd;clip-rule:evenodd;fill:url(#SVGID_5_);}
	.st15{fill-rule:evenodd;clip-rule:evenodd;fill:url(#SVGID_6_);}
	.st16{fill:none;stroke:url(#SVGID_7_);stroke-width:1.5;stroke-linecap:round;stroke-linejoin:round;}
	.st17{fill:none;stroke:url(#SVGID_8_);stroke-width:1.51;stroke-linecap:round;stroke-linejoin:round;}
</style>
<linearGradient
   id="SVGID_1_"
   gradientUnits="userSpaceOnUse"
   x1="114.951"
   y1="1796.6487"
   x2="35.301"
   y2="1739.0087"
   gradientTransform="matrix(1 0 0 1 0 -1660.66)">
	<stop
   offset="0"
   style="stop-color:#000000"
   id="stop6132" />
	<stop
   offset="1"
   style="stop-color:#000000"
   id="stop6134" />
</linearGradient>
<polygon
   class="st0"
   points="8.3,106.6 74.3,145 140.2,106.6 74.3,68.1 "
   id="polygon6137" />
<linearGradient
   id="SVGID_2_"
   gradientUnits="userSpaceOnUse"
   x1="81.34"
   y1="1768.26"
   x2="8"
   y2="1768.26"
   gradientTransform="matrix(1 0 0 1 0 -1660.66)">
	<stop
   offset="0"
   style="stop-color:#840016"
   id="stop6139" />
	<stop
   offset="1"
   style="stop-color:#510A18"
   id="stop6141" />
</linearGradient>
<polygon
   class="st1"
   points="81.3,114.1 8,84.3 8,92.3 74,130.9 "
   id="polygon6144"
   style="fill:#0e0047;fill-opacity:1" />
<linearGradient
   id="SVGID_3_"
   gradientUnits="userSpaceOnUse"
   x1="-133.31"
   y1="1768.25"
   x2="-132.15"
   y2="1768.25"
   gradientTransform="matrix(1 0 0 1 0 -1660.66)">
	<stop
   offset="0"
   style="stop-color:#FC2632"
   id="stop6146" />
	<stop
   offset="1"
   style="stop-color:#F70E28"
   id="stop6148" />
</linearGradient>
<polygon
   class="st2"
   points="140,92 140,84.3 74,120.9 74,130.9 "
   id="polygon6151"
   style="fill:#041b88;fill-opacity:1" />
<linearGradient
   id="SVGID_4_"
   gradientUnits="userSpaceOnUse"
   x1="114.6523"
   y1="1774.48"
   x2="34.8648"
   y2="1716.7408"
   gradientTransform="matrix(1 0 0 1 0 -1660.66)">
	<stop
   offset="0"
   style="stop-color:#CB0C18"
   id="stop6153" />
	<stop
   offset="1"
   style="stop-color:#670A18"
   id="stop6155" />
</linearGradient>
<polygon
   class="st3"
   points="7.8,84.4 74,122.8 140,84.3 73.8,45.9 "
   id="polygon6158"
   style="fill:#4a2ec4;fill-opacity:1" />
<linearGradient
   id="Prostokąt_1_1_"
   gradientUnits="userSpaceOnUse"
   x1="-3994.0247"
   y1="104.4751"
   x2="-3907.7346"
   y2="55.2551"
   gradientTransform="matrix(-1 -1.000000e-02 1.000000e-02 -1 -3890.23 132.9)">
	<stop
   offset="0"
   style="stop-color:#000000"
   id="stop6160" />
	<stop
   offset="1"
   style="stop-color:#000000"
   id="stop6162" />
</linearGradient>
<path
   id="Prostokąt_1"
   class="st4"
   d="M81.8,60.7l-49.4,27l36.7,21.6l48.5-27.6L81.8,60.7z" />
<linearGradient
   id="Prostokąt_1-2_1_"
   gradientUnits="userSpaceOnUse"
   x1="-3992.353"
   y1="110.0223"
   x2="-3926.553"
   y2="53.2123"
   gradientTransform="matrix(-1 -1.000000e-02 1.000000e-02 -1 -3890.23 132.9)">
	<stop
   offset="0"
   style="stop-color:#E7E9E9"
   id="stop6166" />
	<stop
   offset="0.47"
   style="stop-color:#E5E8E8"
   id="stop6168" />
	<stop
   offset="0.64"
   style="stop-color:#DEE2E6"
   id="stop6170" />
	<stop
   offset="0.76"
   style="stop-color:#D3D9E2"
   id="stop6172" />
	<stop
   offset="0.86"
   style="stop-color:#C2CBDC"
   id="stop6174" />
	<stop
   offset="0.94"
   style="stop-color:#ACBAD4"
   id="stop6176" />
	<stop
   offset="1"
   style="stop-color:#98AACD"
   id="stop6178" />
</linearGradient>
<path
   id="Prostokąt_1-2"
   class="st5"
   d="M68.3,74.6l0.7,21.5l49.1-28l0.1-18L68.3,74.6z" />
<linearGradient
   id="Prostokąt_1-3_1_"
   gradientUnits="userSpaceOnUse"
   x1="-3920.7012"
   y1="114.7211"
   x2="-3979.5364"
   y2="60.7815"
   gradientTransform="matrix(-1 -1.000000e-02 1.000000e-02 -1 -3890.23 132.9)">
	<stop
   offset="0"
   style="stop-color:#989AAD"
   id="stop6182" />
	<stop
   offset="1"
   style="stop-color:#98A0B7"
   id="stop6184" />
</linearGradient>
<path
   id="Prostokąt_1-3"
   class="st6"
   d="M32.1,56L32,74.4L69,96V75.7L32.1,56z" />
<linearGradient
   id="Prostokąt_1-4_1_"
   gradientUnits="userSpaceOnUse"
   x1="-3993.7734"
   y1="136.1279"
   x2="-3907.2087"
   y2="86.7407"
   gradientTransform="matrix(-1 -1.000000e-02 1.000000e-02 -1 -3890.23 132.9)">
	<stop
   offset="0"
   style="stop-color:#CDD3DB"
   id="stop6188" />
	<stop
   offset="1"
   style="stop-color:#ACB0C2"
   id="stop6190" />
</linearGradient>
<path
   id="Prostokąt_1-4"
   class="st7"
   d="M81.8,29.1L32.1,56L69,78l48.6-27.8L81.8,29.1z" />
<linearGradient
   id="Prostokąt_1-5_1_"
   gradientUnits="userSpaceOnUse"
   x1="-3992.3569"
   y1="134.8722"
   x2="-3927.707"
   y2="79.0522"
   gradientTransform="matrix(-1 -1.000000e-02 1.000000e-02 -1 -3890.23 132.9)">
	<stop
   offset="0"
   style="stop-color:#E7E9E9"
   id="stop6194" />
	<stop
   offset="0.47"
   style="stop-color:#E5E8E8"
   id="stop6196" />
	<stop
   offset="0.64"
   style="stop-color:#DEE2E6"
   id="stop6198" />
	<stop
   offset="0.76"
   style="stop-color:#D3D9E2"
   id="stop6200" />
	<stop
   offset="0.86"
   style="stop-color:#C2CBDC"
   id="stop6202" />
	<stop
   offset="0.94"
   style="stop-color:#ACBAD4"
   id="stop6204" />
	<stop
   offset="1"
   style="stop-color:#98AACD"
   id="stop6206" />
</linearGradient>
<path
   id="Prostokąt_1-5"
   class="st8"
   d="M69,51.5v18.1l48-27.5V24.1L69,51.5z" />
<linearGradient
   id="Prostokąt_1-6_1_"
   gradientUnits="userSpaceOnUse"
   x1="-3919.989"
   y1="140.3594"
   x2="-3978.769"
   y2="86.4794"
   gradientTransform="matrix(-1 -1.000000e-02 1.000000e-02 -1 -3890.23 132.9)">
	<stop
   offset="0"
   style="stop-color:#989AAD"
   id="stop6210" />
	<stop
   offset="1"
   style="stop-color:#98A0B7"
   id="stop6212" />
</linearGradient>
<path
   id="Prostokąt_1-6"
   class="st9"
   d="M32,29.9v18.2l37,21.6V51.6L32,29.9z" />
<linearGradient
   id="Prostokąt_1-7_1_"
   gradientUnits="userSpaceOnUse"
   x1="-3992.9851"
   y1="162.051"
   x2="-3907.0369"
   y2="113.0276"
   gradientTransform="matrix(-1 -1.000000e-02 1.000000e-02 -1 -3890.23 132.9)">
	<stop
   offset="0"
   style="stop-color:#CDD3DB"
   id="stop6216" />
	<stop
   offset="1"
   style="stop-color:#ACB0C2"
   id="stop6218" />
</linearGradient>
<path
   id="Prostokąt_1-7"
   class="st10"
   d="M81.8,3L32,29.9l37,21.8l48-27.6L81.8,3z" />
<linearGradient
   id="Prostokąt_1-8_1_"
   gradientUnits="userSpaceOnUse"
   x1="-3991.3455"
   y1="162.0712"
   x2="-4045.5156"
   y2="195.6012"
   gradientTransform="matrix(-1 -1.000000e-02 1.000000e-02 -1 -3890.23 132.9)">
	<stop
   offset="0"
   style="stop-color:#CDD3DB"
   id="stop6222" />
	<stop
   offset="0.32"
   style="stop-color:#C2C7D2"
   id="stop6224" />
	<stop
   offset="1"
   style="stop-color:#ACB0C2"
   id="stop6226" />
</linearGradient>
<path
   id="Prostokąt_1-8"
   class="st11"
   d="M80.8,10.8L49.5,28.6l23.1,13.6l31.3-17.8L80.8,10.8z" />
<path
   id="Elipsa_820"
   class="st12"
   d="M42.1,27.9c1-0.5,2.1-0.5,3.1,0c0.5,0.2,0.7,0.8,0.5,1.3c-0.1,0.2-0.3,0.4-0.5,0.5  c-1,0.5-2.1,0.5-3.1,0c-0.5-0.2-0.7-0.8-0.5-1.3C41.7,28.1,41.9,28,42.1,27.9z"
   style="fill:#4a2ec4;fill-opacity:1" />
<path
   id="Elipsa_820-2"
   class="st12"
   d="M79.8,6.5c1-0.5,2.1-0.5,3.1,0c0.5,0.2,0.7,0.8,0.5,1.3c-0.1,0.2-0.3,0.4-0.5,0.5  c-1,0.5-2.1,0.5-3.1,0c-0.5-0.2-0.7-0.8-0.5-1.3C79.5,6.8,79.6,6.6,79.8,6.5z"
   style="fill:#4a2ec4;fill-opacity:1" />
<path
   id="Elipsa_820-3"
   class="st12"
   d="M108.7,23.3c1-0.5,2.1-0.5,3.1,0c0.5,0.2,0.7,0.8,0.5,1.3c-0.1,0.2-0.3,0.4-0.5,0.5  c-1,0.5-2.1,0.5-3.1,0c-0.5-0.2-0.7-0.8-0.5-1.3C108.3,23.6,108.4,23.4,108.7,23.3z"
   style="fill:#4a2ec4;fill-opacity:1" />
<path
   id="Elipsa_820-4"
   class="st12"
   d="M70.2,44.7c1-0.5,2.1-0.5,3.1,0c0.5,0.2,0.7,0.8,0.5,1.3c-0.1,0.2-0.3,0.4-0.5,0.5  c-1,0.5-2.1,0.5-3.1,0c-0.5-0.2-0.7-0.8-0.5-1.3C69.8,45,70,44.8,70.2,44.7z"
   style="fill:#4a2ec4;fill-opacity:1" />
<path
   id="Prostokąt_1-9"
   class="st12"
   d="M60.9,42.4L57,44.6l2.9,1.7l3.9-2.3L60.9,42.4z"
   style="fill:#4a2ec4;fill-opacity:1" />
<polygon
   class="st13"
   points="57,48.1 57,44.6 59.9,46.3 59.9,49.7 "
   id="polygon6235"
   style="fill:#15094c;fill-opacity:1" />
<path
   id="Prostokąt_1-9_1_"
   class="st12"
   d="M56.2,39.6l-3.9,2.2l2.9,1.7l3.9-2.3L56.2,39.6z"
   style="fill:#4a2ec4;fill-opacity:1" />
<polygon
   class="st13"
   points="52.2,45.3 52.2,41.9 55.1,43.6 55.1,47 "
   id="polygon6238"
   style="fill:#15094c;fill-opacity:1" />
<path
   id="Prostokąt_1-9_2_"
   class="st12"
   d="M51.4,36.8L47.5,39l2.9,1.7l3.9-2.3L51.4,36.8z"
   style="fill:#4a2ec4;fill-opacity:1" />
<polygon
   class="st13"
   points="47.5,42.5 47.5,39 50.4,40.7 50.4,44.1 "
   id="polygon6241"
   style="fill:#15094c;fill-opacity:1" />
<path
   id="Prostokąt_1-9_3_"
   class="st12"
   d="M46.8,34.1l-3.9,2.2l2.9,1.7l3.9-2.3L46.8,34.1z"
   style="fill:#4a2ec4;fill-opacity:1" />
<polygon
   class="st13"
   points="42.9,39.8 42.9,36.4 45.8,38.1 45.8,41.5 "
   id="polygon6244"
   style="fill:#15094c;fill-opacity:1" />
<linearGradient
   id="SVGID_5_"
   gradientUnits="userSpaceOnUse"
   x1="85.5077"
   y1="92.7435"
   x2="41.1677"
   y2="63.4935"
   gradientTransform="matrix(1 0 0 -1 40.15 148)">
	<stop
   offset="0.22"
   style="stop-color:#CDD3DB"
   id="stop6246" />
	<stop
   offset="0.97"
   style="stop-color:#ACB0C2"
   id="stop6248" />
</linearGradient>
<path
   class="st14"
   d="M118.9,74.8c2-4.6,3.1-9.5,3.2-14.5c0-2.9,3.8-7.7,1.9-8.8c-2.3-1.3-7.5-4.1-8.9-4.6  c-3.3-1.3-7.5-0.7-12.1,2.1c-10.6,6.3-19.1,21.6-19.1,34.2c0,4.6,1.1,8.2,3.1,10.6l7,3.8L118.9,74.8z"
   id="path6251" />
<linearGradient
   id="SVGID_6_"
   gradientUnits="userSpaceOnUse"
   x1="52.7304"
   y1="70.0189"
   x2="126.2604"
   y2="95.3089"
   gradientTransform="matrix(1 0 0 -1 40.15 148)">
	<stop
   offset="0.64"
   style="stop-color:#E7E9E9"
   id="stop6253" />
	<stop
   offset="0.8"
   style="stop-color:#B1B4C3"
   id="stop6255" />
	<stop
   offset="0.93"
   style="stop-color:#8F92AA"
   id="stop6257" />
	<stop
   offset="0.99"
   style="stop-color:#8285A1"
   id="stop6259" />
</linearGradient>
<path
   class="st15"
   d="M126,78.7c2-4.6,3.1-9.5,3.2-14.6c0-12.6-8.6-17.7-19.2-11.4S90.9,74.3,90.9,86.9c0,4.6,1.1,8.2,3.1,10.6  L126,78.7z"
   id="path6262" />
<linearGradient
   id="SVGID_7_"
   gradientUnits="userSpaceOnUse"
   x1="97.25"
   y1="76.2829"
   x2="124.5"
   y2="76.2829"
   gradientTransform="matrix(1 0 0 -1 0 148)">
	<stop
   offset="0"
   style="stop-color:#CB0C18"
   id="stop6264" />
	<stop
   offset="1"
   style="stop-color:#670A18"
   id="stop6266" />
</linearGradient>
<path
   class="st16"
   d="M123.6,70c0.1-0.7,0.1-1.3,0.1-2c0-8.5-5.8-11.9-12.9-7.7S98,74.9,98,83.4c0,0.5,0,1,0.1,1.5"
   id="path6269"
   style="stroke:#4a2ec4;stroke-opacity:1" />
<linearGradient
   id="SVGID_8_"
   gradientUnits="userSpaceOnUse"
   x1="-2095.585"
   y1="77.325"
   x2="-2090.125"
   y2="77.325"
   gradientTransform="matrix(1 0 0 -1 2206.3799 148)">
	<stop
   offset="0"
   style="stop-color:#FC2632"
   id="stop6271" />
	<stop
   offset="1"
   style="stop-color:#F70E28"
   id="stop6273" />
</linearGradient>
<line
   class="st17"
   x1="111.6"
   y1="75.6"
   x2="115.5"
   y2="65.7"
   id="line6276"
   style="fill:#4a2ec4;fill-opacity:1;stroke:#4a2ec4;stroke-opacity:1" />
<path
   id="Elipsa_1169"
   class="st12"
   d="M111.6,73.1c1.2-0.7,2.1-0.1,2.1,1.3c-0.1,1.5-0.9,3-2.1,3.8c-1.2,0.7-2.1,0.1-2.1-1.3  C109.6,75.3,110.4,73.9,111.6,73.1z"
   style="stroke:#4a2ec4;stroke-opacity:1;fill:#4a2ec4;fill-opacity:1" />
</svg>
