<?xml version="1.0" encoding="UTF-8" standalone="no"?>
<!-- Generator: Adobe Illustrator 24.2.1, SVG Export Plug-In . SVG Version: 6.00 Build 0)  -->

<svg
   version="1.1"
   id="Warstwa_1"
   x="0px"
   y="0px"
   viewBox="0 0 148 148"
   style="enable-background:new 0 0 148 148;"
   xml:space="preserve"
   sodipodi:docname="5.svg"
   inkscape:version="1.1 (c68e22c387, 2021-05-23)"
   xmlns:inkscape="http://www.inkscape.org/namespaces/inkscape"
   xmlns:sodipodi="http://sodipodi.sourceforge.net/DTD/sodipodi-0.dtd"
   xmlns="http://www.w3.org/2000/svg"
   xmlns:svg="http://www.w3.org/2000/svg"><defs
   id="defs1649" /><sodipodi:namedview
   id="namedview1647"
   pagecolor="#ffffff"
   bordercolor="#666666"
   borderopacity="1.0"
   inkscape:pageshadow="2"
   inkscape:pageopacity="0.0"
   inkscape:pagecheckerboard="0"
   showgrid="false"
   inkscape:zoom="5.2905405"
   inkscape:cx="74"
   inkscape:cy="74"
   inkscape:window-width="1920"
   inkscape:window-height="1001"
   inkscape:window-x="-9"
   inkscape:window-y="-9"
   inkscape:window-maximized="1"
   inkscape:current-layer="g1644" />
<style
   type="text/css"
   id="style1514">
	
		.st0{opacity:0.95;fill:none;stroke:#818696;stroke-width:1.44;stroke-linecap:round;stroke-linejoin:round;enable-background:new    ;}
	.st1{opacity:0.15;fill:url(#SVGID_1_);enable-background:new    ;}
	.st2{fill:url(#SVGID_2_);}
	.st3{fill:url(#SVGID_3_);}
	.st4{fill:url(#SVGID_4_);}
	.st5{opacity:0.3;fill-rule:evenodd;clip-rule:evenodd;fill:url(#Elipsa_820_1_);enable-background:new    ;}
	.st6{fill-rule:evenodd;clip-rule:evenodd;fill:url(#Elipsa_820-2_1_);}
	.st7{fill-rule:evenodd;clip-rule:evenodd;fill:url(#Elipsa_820-3_1_);}
	.st8{fill-rule:evenodd;clip-rule:evenodd;fill:url(#Elipsa_820-4_1_);}
	.st9{fill-rule:evenodd;clip-rule:evenodd;fill:url(#Elipsa_820-5_1_);}
	.st10{fill:none;stroke:url(#SVGID_5_);stroke-width:2.77;stroke-linecap:round;stroke-linejoin:round;}
	.st11{fill:none;stroke:url(#SVGID_6_);stroke-width:2.88;stroke-linecap:round;stroke-linejoin:round;}
	.st12{fill-rule:evenodd;clip-rule:evenodd;fill:#F70E28;}
	
		.st13{opacity:0.95;fill:none;stroke:#818696;stroke-width:2.77;stroke-linecap:round;stroke-linejoin:round;enable-background:new    ;}
	
		.st14{opacity:0.95;fill:none;stroke:#818696;stroke-width:1.39;stroke-linecap:round;stroke-linejoin:round;enable-background:new    ;}
	
		.st15{opacity:0.95;fill:none;stroke:#818696;stroke-width:2.88;stroke-linecap:round;stroke-linejoin:round;enable-background:new    ;}
	.st16{fill:none;stroke:#818696;stroke-width:2.88;stroke-linecap:round;stroke-linejoin:round;}
	.st17{fill:none;stroke:#818696;stroke-width:2.77;stroke-linecap:round;stroke-linejoin:round;}
	
		.st18{opacity:0.5;fill:none;stroke:#818696;stroke-width:1.39;stroke-linecap:round;stroke-linejoin:round;enable-background:new    ;}
	.st19{fill-rule:evenodd;clip-rule:evenodd;fill:url(#Kształt_9_1_);}
	.st20{fill-rule:evenodd;clip-rule:evenodd;fill:url(#Kształt_9-2_1_);}
	.st21{fill:#DE000A;}
</style>
<line
   class="st0"
   x1="75.4"
   y1="9.1"
   x2="75.4"
   y2="12.3"
   id="line1516" />
<linearGradient
   id="SVGID_1_"
   gradientUnits="userSpaceOnUse"
   x1="114.6383"
   y1="-1213.0347"
   x2="34.9883"
   y2="-1155.3948"
   gradientTransform="matrix(1 0 0 -1 0 -1077.59)">
	<stop
   offset="0"
   style="stop-color:#000000"
   id="stop1518" />
	<stop
   offset="1"
   style="stop-color:#000000"
   id="stop1520" />
</linearGradient>
<polygon
   class="st1"
   points="8,106 74,144.5 139.9,106 74,67.6 "
   id="polygon1523" />
<linearGradient
   id="SVGID_2_"
   gradientUnits="userSpaceOnUse"
   x1="79.2"
   y1="-1184.6421"
   x2="8"
   y2="-1184.6421"
   gradientTransform="matrix(1 0 0 -1 0 -1077.59)">
	<stop
   offset="0"
   style="stop-color:#840016"
   id="stop1525" />
	<stop
   offset="1"
   style="stop-color:#510A18"
   id="stop1527" />
</linearGradient>
<polygon
   class="st2"
   points="79.2,119.2 8,83.8 8,91.8 74,130.3 "
   id="polygon1530"
   style="fill:#0b143b;fill-opacity:1" />
<linearGradient
   id="SVGID_3_"
   gradientUnits="userSpaceOnUse"
   x1="-132.8897"
   y1="-1184.6357"
   x2="-131.7318"
   y2="-1184.6357"
   gradientTransform="matrix(1 0 0 -1 0 -1077.59)">
	<stop
   offset="0"
   style="stop-color:#FC2632"
   id="stop1532" />
	<stop
   offset="1"
   style="stop-color:#F70E28"
   id="stop1534" />
</linearGradient>
<polygon
   class="st3"
   points="139.9,91.4 139.9,83.8 74,120.4 74,130.3 "
   id="polygon1537"
   style="fill:#041b88;fill-opacity:1" />
<linearGradient
   id="SVGID_4_"
   gradientUnits="userSpaceOnUse"
   x1="114.6899"
   y1="-1190.8363"
   x2="34.9999"
   y2="-1133.1664"
   gradientTransform="matrix(1 0 0 -1 0 -1077.59)">
	<stop
   offset="0"
   style="stop-color:#CB0C18"
   id="stop1539" />
	<stop
   offset="1"
   style="stop-color:#670A18"
   id="stop1541" />
</linearGradient>
<polygon
   class="st4"
   points="8,83.8 74,122.3 140,83.8 74.2,45.4 "
   id="polygon1544"
   style="fill:#4a2ec4;fill-opacity:1" />
<linearGradient
   id="Elipsa_820_1_"
   gradientUnits="userSpaceOnUse"
   x1="116.6685"
   y1="15.7079"
   x2="41.8385"
   y2="25.0879"
   gradientTransform="matrix(1 0 0 1 0 60)">
	<stop
   offset="0"
   style="stop-color:#000000"
   id="stop1546" />
	<stop
   offset="1"
   style="stop-color:#000000"
   id="stop1548" />
</linearGradient>
<path
   id="Elipsa_820"
   class="st5"
   d="M47.8,65.3c16.7-8.7,36.6-8.7,53.3,0c14.7,8.7,14.7,22.7,0,31.4c-16.7,8.7-36.6,8.7-53.3,0  C33.1,88.1,33.1,74,47.8,65.3z" />
<linearGradient
   id="Elipsa_820-2_1_"
   gradientUnits="userSpaceOnUse"
   x1="113.9899"
   y1="4.3967"
   x2="20.6899"
   y2="4.9868"
   gradientTransform="matrix(1 0 0 1 0 60)">
	<stop
   offset="0.42"
   style="stop-color:#E7E9E9"
   id="stop1552" />
	<stop
   offset="0.68"
   style="stop-color:#B1B4C3"
   id="stop1554" />
	<stop
   offset="0.88"
   style="stop-color:#8F92AA"
   id="stop1556" />
	<stop
   offset="0.99"
   style="stop-color:#8285A1"
   id="stop1558" />
</linearGradient>
<path
   id="Elipsa_820-2"
   class="st6"
   d="M37.1,49.4c16.5-8.6,58-8.4,74.6,0.2c0.1,6.9,0.1,9.2,0,14.9s-3.7,11.1-10.9,15.3  c-16.5,8.6-36.2,8.6-52.8,0c-7.2-4.2-10.9-9.8-10.9-15.4S37.1,57.8,37.1,49.4z" />
<linearGradient
   id="Elipsa_820-3_1_"
   gradientUnits="userSpaceOnUse"
   x1="116.1853"
   y1="-16.1873"
   x2="42.1053"
   y2="-6.8973"
   gradientTransform="matrix(1 0 0 1 0 60)">
	<stop
   offset="0"
   style="stop-color:#CDD3DB"
   id="stop1562" />
	<stop
   offset="1"
   style="stop-color:#ACB0C2"
   id="stop1564" />
</linearGradient>
<path
   id="Elipsa_820-3"
   class="st7"
   d="M48,33.5c16.6-8.6,36.2-8.6,52.8,0c14.6,8.6,14.6,22.5,0,31.1c-16.5,8.6-36.2,8.6-52.8,0  C33.5,56.1,33.5,42.1,48,33.5z" />
<linearGradient
   id="Elipsa_820-4_1_"
   gradientUnits="userSpaceOnUse"
   x1="114"
   y1="-19.6033"
   x2="20.69"
   y2="-19.0133"
   gradientTransform="matrix(1 0 0 1 0 60)">
	<stop
   offset="0.42"
   style="stop-color:#E7E9E9"
   id="stop1568" />
	<stop
   offset="0.68"
   style="stop-color:#B1B4C3"
   id="stop1570" />
	<stop
   offset="0.88"
   style="stop-color:#8F92AA"
   id="stop1572" />
	<stop
   offset="0.99"
   style="stop-color:#8285A1"
   id="stop1574" />
</linearGradient>
<path
   id="Elipsa_820-4"
   class="st8"
   d="M37.1,24.9c16.5-8.6,58-8.4,74.6,0.2c0.1,6.9,0.1,10.2,0,15.9c0,5.5-3.8,11.1-10.9,15.3  c-16.5,8.6-36.2,8.6-52.8,0c-7.2-4.3-10.9-9.8-10.9-15.4S37.1,33.3,37.1,24.9z" />
<linearGradient
   id="Elipsa_820-5_1_"
   gradientUnits="userSpaceOnUse"
   x1="116.1903"
   y1="-39.6876"
   x2="42.1103"
   y2="-30.4076"
   gradientTransform="matrix(1 0 0 1 0 60)">
	<stop
   offset="0"
   style="stop-color:#CDD3DB"
   id="stop1578" />
	<stop
   offset="1"
   style="stop-color:#ACB0C2"
   id="stop1580" />
</linearGradient>
<path
   id="Elipsa_820-5"
   class="st9"
   d="M48,10c16.5-8.6,36.2-8.6,52.8-0.1c14.6,8.6,14.6,22.5,0,31.2c-16.5,8.6-36.2,8.6-52.8,0  C33.5,32.5,33.5,18.6,48,10z" />
<linearGradient
   id="SVGID_5_"
   gradientUnits="userSpaceOnUse"
   x1="-2105.0349"
   y1="-38.9"
   x2="-2088.625"
   y2="-38.9"
   gradientTransform="matrix(1 0 0 1 2166.22 60)">
	<stop
   offset="0"
   style="stop-color:#FC2632"
   id="stop1584" />
	<stop
   offset="1"
   style="stop-color:#F70E28"
   id="stop1586" />
</linearGradient>
<line
   class="st10"
   x1="76.2"
   y1="25.1"
   x2="62.6"
   y2="17.1"
   id="line1589"
   style="fill:#4a2ec4;fill-opacity:1;stroke:#4a2ec4;stroke-opacity:1" />
<linearGradient
   id="SVGID_6_"
   gradientUnits="userSpaceOnUse"
   x1="-2091.76"
   y1="-39"
   x2="-2081.1099"
   y2="-39"
   gradientTransform="matrix(1 0 0 1 2166.22 60)">
	<stop
   offset="0"
   style="stop-color:#FC2632"
   id="stop1591" />
	<stop
   offset="1"
   style="stop-color:#F70E28"
   id="stop1593" />
</linearGradient>
<line
   class="st11"
   x1="83.7"
   y1="18.5"
   x2="75.9"
   y2="23.5"
   id="line1596"
   style="fill:#4a2ec4;fill-opacity:1;stroke:#4a2ec4;stroke-opacity:1" />
<path
   id="Elipsa_820-6"
   class="st12"
   d="M72.2,22.6c1.9-1,4.1-1,6,0c1.7,1,1.7,2.6,0,3.5c-1.9,1-4.1,1-6,0  C70.5,25.2,70.5,23.6,72.2,22.6z"
   style="fill:#4a2ec4;fill-opacity:1" />
<line
   class="st13"
   x1="57.8"
   y1="14.2"
   x2="55"
   y2="12.6"
   id="line1599" />
<line
   class="st14"
   x1="46.9"
   y1="25.7"
   x2="43.9"
   y2="25.5"
   id="line1601" />
<line
   class="st0"
   x1="104.7"
   y1="24.6"
   x2="101.6"
   y2="24.5"
   id="line1603" />
<line
   class="st15"
   x1="97.7"
   y1="36.3"
   x2="93.7"
   y2="34"
   id="line1605" />
<line
   class="st16"
   x1="90.7"
   y1="14.3"
   x2="93.7"
   y2="12.5"
   id="line1607" />
<line
   class="st17"
   x1="53.1"
   y1="37.5"
   x2="56.7"
   y2="35.4"
   id="line1609" />
<path
   id="Elipsa_820-7"
   class="st18"
   d="M51,11.8c14.7-7.6,32.1-7.6,46.8,0c12.9,7.6,12.9,20,0,27.6C83.2,47,65.7,47,51,39.4  C38.1,31.8,38.1,19.4,51,11.8z" />
<line
   class="st0"
   x1="75.2"
   y1="39.5"
   x2="75.2"
   y2="42.6"
   id="line1612" />
<line
   class="st0"
   x1="75.2"
   y1="7.8"
   x2="75.2"
   y2="10.9"
   id="line1614" />
<linearGradient
   id="Kształt_9_1_"
   gradientUnits="userSpaceOnUse"
   x1="39.3105"
   y1="-7.8465"
   x2="-48.1635"
   y2="-56.7461"
   gradientTransform="matrix(0.4927 -0.8702 0.8702 0.4927 122.1353 91.7047)">
	<stop
   offset="0"
   style="stop-color:#E7E9E9"
   id="stop1616" />
	<stop
   offset="0.46"
   style="stop-color:#B1B4C3"
   id="stop1618" />
	<stop
   offset="0.81"
   style="stop-color:#8F92AA"
   id="stop1620" />
	<stop
   offset="0.99"
   style="stop-color:#8285A1"
   id="stop1622" />
</linearGradient>
<path
   id="Kształt_9"
   class="st19"
   d="M119,77l-1,0.6l0.1,8l-9.2-2.6L91.1,98.7c0,0-5.1-3-5.8-3.4c-0.9-0.6-1.4-1.6-1.3-2.7  l0.1-25.4c0.1-3,1.7-5.7,4.2-7.3l30.5-17.8c0.9-0.7,2-0.8,3-0.3c0.8,0.4,6.2,3.5,6.2,3.5l-4.7,24.5C123,72.7,121.5,75.4,119,77z" />
<linearGradient
   id="Kształt_9-2_1_"
   gradientUnits="userSpaceOnUse"
   x1="33.2697"
   y1="-4.3009"
   x2="-23.2049"
   y2="-35.8644"
   gradientTransform="matrix(0.4927 -0.8702 0.8702 0.4927 122.1353 91.7047)">
	<stop
   offset="0"
   style="stop-color:#E7E9E9"
   id="stop1626" />
	<stop
   offset="0.45"
   style="stop-color:#E5E7E8"
   id="stop1628" />
	<stop
   offset="0.63"
   style="stop-color:#DEE2E6"
   id="stop1630" />
	<stop
   offset="0.75"
   style="stop-color:#D2D8E2"
   id="stop1632" />
	<stop
   offset="0.86"
   style="stop-color:#C1CBDB"
   id="stop1634" />
	<stop
   offset="0.94"
   style="stop-color:#ABB9D4"
   id="stop1636" />
	<stop
   offset="1"
   style="stop-color:#98AACD"
   id="stop1638" />
</linearGradient>
<path
   id="Kształt_9-2"
   class="st20"
   d="M125,80.5l-1.1,0.7v8l-8.9-2.8L94.4,98.5c-2.3,1.4-4.3,0.4-4.3-2.3V70.8  c0.1-3,1.5-5.8,4-7.4l30.6-18c2.3-1.4,4.2-0.3,4.2,2.4v25.6C128.8,76.3,127.4,78.9,125,80.5z" />
<g
   id="g1644"
   style="stroke:#4a2ec4;stroke-opacity:1">
	<path
   class="st21"
   d="M106.7,67.9c0.2-0.4,0.5-0.7,0.8-1.1s0.6-0.7,0.9-1.1s0.6-0.7,1-1s0.8-0.6,1.2-0.8c0.5-0.3,1-0.5,1.6-0.6   c0.4-0.1,0.9-0.1,1.3,0.1c0.4,0.1,0.6,0.4,0.8,0.8c0.2,0.5,0.3,1,0.3,1.5c0,0.6-0.1,1.2-0.2,1.7s-0.3,1-0.6,1.5   c-0.2,0.5-0.5,0.9-0.8,1.3s-0.5,0.8-0.8,1.1c-0.2,0.3-0.4,0.7-0.6,1s-0.3,0.6-0.3,0.9l-0.2,1.9l-1.5,0.9l-0.2-1.9   c0-0.4,0-0.7,0.2-1.1s0.3-0.7,0.6-1.1c0.2-0.4,0.5-0.8,0.8-1.1c0.3-0.4,0.5-0.8,0.8-1.2c0.2-0.4,0.4-0.8,0.6-1.3   c0.2-0.4,0.3-0.9,0.3-1.3c0-0.3,0-0.5-0.2-0.8c-0.1-0.2-0.2-0.3-0.4-0.4c-0.2-0.1-0.4-0.1-0.7,0c-0.3,0.1-0.6,0.2-0.8,0.3   c-0.4,0.2-0.7,0.5-1,0.8c-0.3,0.2-0.5,0.5-0.7,0.8s-0.4,0.5-0.5,0.7c-0.1,0.1-0.2,0.3-0.3,0.4c-0.2,0.1-0.4,0.1-0.5-0.1L106.7,67.9   z M108.7,81c0-0.2,0-0.5,0.1-0.7s0.2-0.5,0.3-0.7c0.1-0.2,0.3-0.4,0.5-0.6s0.4-0.3,0.6-0.5c0.2-0.1,0.4-0.2,0.6-0.2s0.3,0,0.5,0.1   c0.1,0.1,0.2,0.2,0.3,0.4c0.1,0.2,0.1,0.4,0.1,0.6s0,0.5-0.1,0.7s-0.2,0.5-0.3,0.7c-0.1,0.2-0.3,0.4-0.5,0.6s-0.4,0.3-0.6,0.4   s-0.4,0.2-0.6,0.2s-0.3,0-0.5-0.1c-0.1-0.1-0.2-0.2-0.3-0.3C108.7,81.4,108.7,81.2,108.7,81L108.7,81z"
   id="path1642"
   style="stroke:#4a2ec4;stroke-opacity:1;fill:#1829c8;fill-opacity:1" />
</g>
</svg>
