<svg xmlns="http://www.w3.org/2000/svg" xmlns:xlink="http://www.w3.org/1999/xlink" viewBox="0 0 68 68"><defs><style>.cls-1{fill:url(#Безымянный_градиент_3);}.cls-2{fill:url(#Безымянный_градиент_3-2);}.cls-3{fill:url(#Безымянный_градиент_3-3);}.cls-4{fill:#c4d9e8;opacity:0.5;}.cls-5{fill:#8552d7;}.cls-6{fill:url(#Безымянный_градиент_6);}.cls-7{fill:#38055a;}.cls-8{fill:url(#Безымянный_градиент_6-2);}.cls-9{fill:url(#Безымянный_градиент_6-3);}.cls-10{fill:url(#Безымянный_градиент_6-4);}.cls-11{fill:url(#Безымянный_градиент_6-5);}.cls-12{fill:url(#Безымянный_градиент_6-6);}.cls-13{fill:url(#Безымянный_градиент_6-7);}.cls-14{fill:url(#Безымянный_градиент_6-8);}.cls-15{fill:url(#Безымянный_градиент_6-9);}.cls-16{fill:url(#Безымянный_градиент_6-10);}.cls-17,.cls-18{fill:none;stroke-linecap:round;stroke-linejoin:round;}.cls-17{stroke:url(#Безымянный_градиент_6-11);}.cls-18{stroke:url(#Безымянный_градиент_6-12);}</style><linearGradient id="Безымянный_градиент_3" x1="9.94" y1="45.3" x2="11.79" y2="45.3" gradientUnits="userSpaceOnUse"><stop offset="0" stop-color="#041b88"/><stop offset="1" stop-color="#041b88"/></linearGradient><linearGradient id="Безымянный_градиент_3-2" x1="9.94" y1="33.69" x2="11.79" y2="33.69" xlink:href="#Безымянный_градиент_3"/><linearGradient id="Безымянный_градиент_3-3" x1="9.94" y1="22.07" x2="11.79" y2="22.07" xlink:href="#Безымянный_градиент_3"/><linearGradient id="Безымянный_градиент_6" x1="58.35" y1="40.73" x2="9.81" y2="40.54" gradientUnits="userSpaceOnUse"><stop offset="0" stop-color="#e7e9e9"/><stop offset="1" stop-color="#98aacd"/></linearGradient><linearGradient id="Безымянный_градиент_6-2" x1="58.42" y1="29.22" x2="9.87" y2="28.82" xlink:href="#Безымянный_градиент_6"/><linearGradient id="Безымянный_градиент_6-3" x1="49.03" y1="38.7" x2="50.73" y2="38.7" xlink:href="#Безымянный_градиент_6"/><linearGradient id="Безымянный_градиент_6-4" x1="51.77" y1="37.11" x2="53.47" y2="37.11" xlink:href="#Безымянный_градиент_6"/><linearGradient id="Безымянный_градиент_6-5" x1="54.5" y1="35.53" x2="56.2" y2="35.53" xlink:href="#Безымянный_градиент_6"/><linearGradient id="Безымянный_градиент_6-6" x1="58.71" y1="17.49" x2="10.16" y2="17.32" xlink:href="#Безымянный_градиент_6"/><linearGradient id="Безымянный_градиент_6-7" x1="49.03" y1="27.08" x2="50.73" y2="27.08" xlink:href="#Безымянный_градиент_6"/><linearGradient id="Безымянный_градиент_6-8" x1="51.77" y1="25.5" x2="53.47" y2="25.5" xlink:href="#Безымянный_градиент_6"/><linearGradient id="Безымянный_градиент_6-9" x1="54.5" y1="23.92" x2="56.2" y2="23.92" xlink:href="#Безымянный_градиент_6"/><linearGradient id="Безымянный_градиент_6-10" x1="32.64" y1="17.74" x2="35.78" y2="17.74" xlink:href="#Безымянный_градиент_6"/><linearGradient id="Безымянный_градиент_6-11" x1="37.47" y1="31.42" x2="42.95" y2="31.42" gradientTransform="translate(1.65 0.39) rotate(-0.29)" xlink:href="#Безымянный_градиент_6"/><linearGradient id="Безымянный_градиент_6-12" x1="37.9" y1="42.93" x2="43.37" y2="42.93" gradientTransform="translate(1.65 0.39) rotate(-0.29)" xlink:href="#Безымянный_градиент_6"/></defs><g id="_1" data-name="1"><path class="cls-1" d="M11.79,40.61H9.94v7.47a1.48,1.48,0,0,0,.87,1.35l1,.57Z"/><path class="cls-2" d="M11.79,29H9.94v7.48a1.48,1.48,0,0,0,.87,1.35l1,.56Z"/><path class="cls-3" d="M11.79,17.38H9.94v7.47a1.47,1.47,0,0,0,.87,1.35l1,.57Z"/><path class="cls-4" d="M32.34,67.16,15.52,57.45c-1-.59-.9-1.63.29-2.32l16.24-9.38a4.5,4.5,0,0,1,4-.17L52.9,55.3c1,.59.9,1.63-.29,2.32L36.37,67A4.46,4.46,0,0,1,32.34,67.16Z"/><path class="cls-5" d="M58.48,47.9h0V40.63H42.18l-5.63-3.25a5.62,5.62,0,0,0-5,.21l-5.26,3H9.94v7.47a1.48,1.48,0,0,0,.87,1.35L31.87,61.59a5.59,5.59,0,0,0,5-.21L57.25,49.64C58.11,49.14,58.53,48.5,58.48,47.9Z"/><path class="cls-5" d="M34.21,36.87a5.71,5.71,0,0,0-2.7.71l-5.26,3H9.94v7.47a1.48,1.48,0,0,0,.87,1.35L31.87,61.59a4.57,4.57,0,0,0,2.34.5Z"/><path class="cls-5" d="M32.19,61.74a5.77,5.77,0,0,0,4,0V53.21h-4Z"/><path class="cls-6" d="M31.87,54.14,10.81,42c-1.29-.74-1.13-2,.36-2.91L31.51,27.33a5.62,5.62,0,0,1,5-.21L57.61,39.28c1.29.75,1.13,2-.36,2.91L36.91,53.93A5.56,5.56,0,0,1,31.87,54.14Z"/><path class="cls-7" d="M32.25,52,14.6,41.76c-1.08-.62-.95-1.71.3-2.44l17-9.83a4.65,4.65,0,0,1,4.22-.18L53.82,39.5c1.08.63,1,1.72-.3,2.44l-17,9.84A4.7,4.7,0,0,1,32.25,52Z"/><path class="cls-5" d="M58.48,36.29h0V29H42.18l-5.63-3.25a5.59,5.59,0,0,0-5,.21l-5.26,3H9.94v7.48a1.48,1.48,0,0,0,.87,1.35L31.87,50a5.62,5.62,0,0,0,5-.21L57.25,38C58.11,37.53,58.53,36.89,58.48,36.29Z"/><path class="cls-5" d="M34.21,25.26a5.71,5.71,0,0,0-2.7.71l-5.26,3H9.94v7.48a1.48,1.48,0,0,0,.87,1.35L31.87,50a4.57,4.57,0,0,0,2.34.5Z"/><path class="cls-5" d="M32.21,50.13a5.77,5.77,0,0,0,4-.05V41.59h-4Z"/><path class="cls-8" d="M31.87,42.53,10.81,30.37c-1.29-.75-1.13-2.05.36-2.91L31.51,15.72a5.59,5.59,0,0,1,5-.21L57.61,27.67c1.29.74,1.13,2-.36,2.91L36.91,42.32A5.59,5.59,0,0,1,31.87,42.53Z"/><path class="cls-7" d="M32.25,40.34,14.6,30.15c-1.08-.62-.95-1.72.3-2.44l17-9.84a4.68,4.68,0,0,1,4.22-.17L53.82,27.89c1.08.62,1,1.71-.3,2.44l-17,9.84A4.7,4.7,0,0,1,32.25,40.34Z"/><path class="cls-9" d="M50.73,38.2a1.88,1.88,0,0,1-.85,1.48c-.47.27-.85,0-.85-.49a1.88,1.88,0,0,1,.85-1.48C50.35,37.44,50.73,37.66,50.73,38.2Z"/><path class="cls-10" d="M53.47,36.62a1.88,1.88,0,0,1-.85,1.48c-.47.27-.85,0-.85-.49a1.88,1.88,0,0,1,.85-1.48C53.09,35.86,53.47,36.08,53.47,36.62Z"/><path class="cls-11" d="M56.2,35a1.88,1.88,0,0,1-.85,1.48c-.47.27-.85,0-.85-.49a1.88,1.88,0,0,1,.85-1.48C55.82,34.28,56.2,34.5,56.2,35Z"/><path class="cls-5" d="M58.48,24.67h0V17.41H42.18l-5.63-3.25a5.59,5.59,0,0,0-5,.2l-5.26,3H9.94v7.47a1.47,1.47,0,0,0,.87,1.35L31.87,38.36a5.56,5.56,0,0,0,5-.21L57.25,26.41A2,2,0,0,0,58.48,24.67Z"/><path class="cls-5" d="M34.21,13.65a5.82,5.82,0,0,0-2.7.7l-5.26,3H9.94v7.47a1.47,1.47,0,0,0,.87,1.35L31.87,38.36a4.57,4.57,0,0,0,2.34.5Z"/><path class="cls-5" d="M32.19,38.52a5.79,5.79,0,0,0,4,0V30h-4Z"/><path class="cls-12" d="M31.87,30.92,10.81,18.76c-1.29-.75-1.13-2.05.36-2.91L31.51,4.1a5.59,5.59,0,0,1,5-.2L57.61,16.06c1.29.74,1.13,2-.36,2.91L36.91,30.71A5.62,5.62,0,0,1,31.87,30.92Z"/><path class="cls-7" d="M57.25,17.54,36.91,29.28a5.62,5.62,0,0,1-5,.21L10.81,17.33a2,2,0,0,1-.65-.58,1.37,1.37,0,0,0,.65,2L31.87,30.92a5.62,5.62,0,0,0,5-.21L57.25,19c1.16-.67,1.51-1.61,1-2.34A2.93,2.93,0,0,1,57.25,17.54Z"/><path class="cls-13" d="M50.73,26.59a1.87,1.87,0,0,1-.85,1.47c-.47.28-.85.06-.85-.49a1.87,1.87,0,0,1,.85-1.47C50.35,25.83,50.73,26.05,50.73,26.59Z"/><path class="cls-14" d="M53.47,25a1.87,1.87,0,0,1-.85,1.47c-.47.28-.85.06-.85-.49a1.87,1.87,0,0,1,.85-1.47C53.09,24.25,53.47,24.47,53.47,25Z"/><path class="cls-15" d="M56.2,23.43a1.87,1.87,0,0,1-.85,1.47c-.47.28-.85.06-.85-.49a1.87,1.87,0,0,1,.85-1.47C55.82,22.67,56.2,22.89,56.2,23.43Z"/><path class="cls-5" d="M33.12,23.38l-9.86-5.69c-.6-.35-.53-1,.17-1.36L33,10.83a2.63,2.63,0,0,1,2.36-.1l9.85,5.69c.61.35.53,1-.17,1.37l-9.51,5.49A2.63,2.63,0,0,1,33.12,23.38Z"/><path class="cls-16" d="M34.06,18.61l-1.36-.78c-.09,0-.08-.14,0-.19L34,16.88a.36.36,0,0,1,.32,0l1.37.79c.08.05.07.13,0,.19l-1.31.76A.35.35,0,0,1,34.06,18.61Z"/><path class="cls-7" d="M23.26,17.69h0l.14-.09L33,12.11a2.66,2.66,0,0,1,2.36-.1l9.82,5.68c.56-.4.59-.94,0-1.27l-9.85-5.69a2.63,2.63,0,0,0-2.36.1l-9.52,5.5C22.73,16.73,22.66,17.34,23.26,17.69Z"/><line class="cls-17" x1="39.79" y1="32.94" x2="44.25" y2="30.28"/><line class="cls-18" x1="40.28" y1="44.44" x2="44.74" y2="41.78"/></g></svg>