<svg xmlns="http://www.w3.org/2000/svg" xmlns:xlink="http://www.w3.org/1999/xlink" viewBox="0 0 68 68"><defs><style>.cls-1{fill:#c4d9e8;isolation:isolate;opacity:0.5;}.cls-2{fill:#8552d7;}.cls-3{fill:url(#Безымянный_градиент_6);}.cls-13,.cls-4{fill:#38055a;}.cls-5{fill:url(#Безымянный_градиент_6-2);}.cls-6{fill:url(#Безымянный_градиент_6-3);}.cls-7{fill:url(#Безымянный_градиент_6-4);}.cls-8{fill:url(#Безымянный_градиент_6-5);}.cls-9{fill:url(#Безымянный_градиент_6-6);}.cls-10{fill:url(#Безымянный_градиент_6-7);}.cls-11{fill:url(#Безымянный_градиент_6-8);}.cls-12{fill:url(#Безымянный_градиент_6-9);}.cls-13{fill-rule:evenodd;}.cls-14,.cls-15{fill:none;stroke-linecap:round;stroke-linejoin:round;}.cls-14{stroke:url(#Безымянный_градиент_6-10);}.cls-15{stroke:url(#Безымянный_градиент_6-11);}</style><linearGradient id="Безымянный_градиент_6" x1="10.85" y1="-1148.12" x2="59.39" y2="-1148.12" gradientTransform="matrix(1, 0, 0, -1, 0, -1108.96)" gradientUnits="userSpaceOnUse"><stop offset="0" stop-color="#e7e9e9"/><stop offset="1" stop-color="#98aacd"/></linearGradient><linearGradient id="Безымянный_градиент_6-2" x1="10.85" y1="-1136.5" x2="59.39" y2="-1136.5" xlink:href="#Безымянный_градиент_6"/><linearGradient id="Безымянный_градиент_6-3" x1="49.94" y1="-1146.18" x2="51.64" y2="-1146.18" xlink:href="#Безымянный_градиент_6"/><linearGradient id="Безымянный_градиент_6-4" x1="52.68" y1="-1144.59" x2="54.38" y2="-1144.59" xlink:href="#Безымянный_градиент_6"/><linearGradient id="Безымянный_градиент_6-5" x1="55.42" y1="-1143.01" x2="57.12" y2="-1143.01" xlink:href="#Безымянный_градиент_6"/><linearGradient id="Безымянный_градиент_6-6" x1="10.85" y1="-1124.89" x2="59.39" y2="-1124.89" xlink:href="#Безымянный_градиент_6"/><linearGradient id="Безымянный_градиент_6-7" x1="49.94" y1="-1134.57" x2="51.64" y2="-1134.57" xlink:href="#Безымянный_градиент_6"/><linearGradient id="Безымянный_градиент_6-8" x1="52.68" y1="-1132.98" x2="54.38" y2="-1132.98" xlink:href="#Безымянный_градиент_6"/><linearGradient id="Безымянный_градиент_6-9" x1="55.42" y1="-1131.4" x2="57.12" y2="-1131.4" xlink:href="#Безымянный_градиент_6"/><linearGradient id="Безымянный_градиент_6-10" x1="39.65" y1="30.29" x2="45.11" y2="30.29" gradientTransform="matrix(1, 0, 0, 1, 0, 0)" xlink:href="#Безымянный_градиент_6"/><linearGradient id="Безымянный_градиент_6-11" x1="40.03" y1="42.13" x2="45.5" y2="42.13" gradientTransform="matrix(1, 0, 0, 1, 0, 0)" xlink:href="#Безымянный_градиент_6"/></defs><g id="_1" data-name="1"><path class="cls-1" d="M33.25,65.69,16.44,56c-1-.6-.91-1.64.28-2.33L33,44.28a4.5,4.5,0,0,1,4-.17l16.83,9.71c1,.6.9,1.64-.29,2.33L37.28,65.52A4.44,4.44,0,0,1,33.25,65.69Z"/><path class="cls-2" d="M59.39,46.43h0V39.16H43.1l-5.64-3.25a5.54,5.54,0,0,0-5,.21l-5.25,3H10.86V46.6A1.46,1.46,0,0,0,11.72,48L32.79,60.12a5.67,5.67,0,0,0,5-.21L58.16,48.17A2,2,0,0,0,59.39,46.43Z"/><path class="cls-2" d="M35.12,34.71a5.78,5.78,0,0,0-2.7.71l-5.25,3H10.86V45.9a1.46,1.46,0,0,0,.86,1.35L32.79,59.43a4.63,4.63,0,0,0,2.34.5Z"/><path class="cls-2" d="M12.7,39.13H10.86v7.48A1.46,1.46,0,0,0,11.72,48l1,.56Z"/><path class="cls-2" d="M33.11,60.27a5.74,5.74,0,0,0,4,0V51.76h-4Z"/><path class="cls-3" d="M32.79,52.67,11.72,40.51c-1.29-.75-1.13-2,.36-2.91L32.42,25.86a5.61,5.61,0,0,1,5-.21l21.1,12.16c1.3.74,1.13,2-.36,2.91L37.79,52.46A5.61,5.61,0,0,1,32.79,52.67Z"/><path class="cls-4" d="M33.16,50.48,15.51,40.29c-1.08-.62-.94-1.72.31-2.44l17-9.84A4.68,4.68,0,0,1,37,27.84L54.73,38c1.09.62,1,1.71-.3,2.44l-17,9.84A4.7,4.7,0,0,1,33.16,50.48Z"/><path class="cls-2" d="M59.39,34.81h0V27.55H43.1l-5.64-3.26a5.61,5.61,0,0,0-5,.21l-5.25,3H10.86V35a1.46,1.46,0,0,0,.86,1.35L32.79,48.5a5.58,5.58,0,0,0,5-.21L58.16,36.55A2,2,0,0,0,59.39,34.81Z"/><path class="cls-2" d="M35.12,23.76a5.9,5.9,0,0,0-2.7.71l-5.25,3H10.86v7.47a1.46,1.46,0,0,0,.86,1.35L32.79,48.5a4.63,4.63,0,0,0,2.34.5Z"/><path class="cls-2" d="M12.7,27.52H10.86V35a1.46,1.46,0,0,0,.86,1.35l1,.57Z"/><path class="cls-2" d="M33.11,48.66a5.74,5.74,0,0,0,4,0V40.13h-4Z"/><path class="cls-5" d="M32.79,41.06,11.72,28.9c-1.29-.75-1.13-2,.36-2.92L32.42,14.24a5.61,5.61,0,0,1,5-.21l21.1,12.16c1.3.75,1.13,2-.36,2.92L37.79,40.85A5.67,5.67,0,0,1,32.79,41.06Z"/><path class="cls-4" d="M33.16,38.87,15.51,28.68c-1.08-.63-.94-1.72.31-2.44l17-9.84A4.72,4.72,0,0,1,37,16.22L54.73,26.41c1.09.63,1,1.72-.3,2.44l-17,9.84A4.73,4.73,0,0,1,33.16,38.87Z"/><path class="cls-6" d="M51.64,36.76a1.87,1.87,0,0,1-.85,1.44c-.47.27-.85,0-.85-.49a1.87,1.87,0,0,1,.85-1.47C51.26,36,51.64,36.19,51.64,36.76Z"/><path class="cls-7" d="M54.38,35.15a1.87,1.87,0,0,1-.85,1.47.53.53,0,0,1-.85-.49,1.87,1.87,0,0,1,.85-1.47C54,34.39,54.38,34.61,54.38,35.15Z"/><path class="cls-8" d="M57.12,33.57A1.87,1.87,0,0,1,56.27,35a.53.53,0,0,1-.85-.49,1.87,1.87,0,0,1,.85-1.47C56.79,32.81,57.12,33,57.12,33.57Z"/><path class="cls-2" d="M59.39,23.2h0V15.93H43.1l-5.64-3.25a5.61,5.61,0,0,0-5,.21l-5.25,3H10.86v7.47a1.46,1.46,0,0,0,.86,1.4L32.79,36.89a5.61,5.61,0,0,0,5-.21L58.16,24.94A2,2,0,0,0,59.39,23.2Z"/><path class="cls-2" d="M35.12,12.17a5.78,5.78,0,0,0-2.7.71l-5.25,3H10.86v7.47a1.47,1.47,0,0,0,.86,1.41L32.79,36.89a4.63,4.63,0,0,0,2.34.5Z"/><path class="cls-2" d="M12.7,15.91H10.86v7.47a1.46,1.46,0,0,0,.86,1.38l1,.57Z"/><path class="cls-2" d="M33.11,37.05a5.74,5.74,0,0,0,4,0V28.52h-4Z"/><path class="cls-9" d="M32.79,29.44,11.72,17.28c-1.29-.74-1.13-2,.36-2.91L32.42,2.63a5.61,5.61,0,0,1,5-.21l21.1,12.16c1.3.75,1.13,2-.36,2.91L37.79,29.23A5.58,5.58,0,0,1,32.79,29.44Z"/><path class="cls-4" d="M58.16,16.06,37.79,27.76a5.59,5.59,0,0,1-5,.21l-21-12.12a1.76,1.76,0,0,1-.64-.57,1.34,1.34,0,0,0,.36,1.86,1.47,1.47,0,0,0,.28.14L32.79,29.44a5.58,5.58,0,0,0,5-.21L58.16,17.49c1.16-.67,1.51-1.6,1-2.34A2.82,2.82,0,0,1,58.16,16.06Z"/><path class="cls-10" d="M51.64,25.12a1.87,1.87,0,0,1-.85,1.47c-.47.27-.85.05-.85-.49a1.87,1.87,0,0,1,.85-1.47C51.26,24.35,51.64,24.57,51.64,25.12Z"/><path class="cls-11" d="M54.38,23.54A1.87,1.87,0,0,1,53.53,25c-.47.27-.85,0-.85-.49a1.87,1.87,0,0,1,.85-1.47C54,22.76,54.38,23,54.38,23.54Z"/><path class="cls-12" d="M57.12,22a1.87,1.87,0,0,1-.85,1.47.53.53,0,0,1-.85-.49,1.87,1.87,0,0,1,.85-1.47C56.79,21.19,57.12,21.41,57.12,22Z"/><path id="Kształt_9" data-name="Kształt 9" class="cls-13" d="M27.92,10.63a15.47,15.47,0,0,1,7.14-1.81c-.69.4-.94,1-.09,1.54,1.77,1.08,4.39,0,6.86,2.83l2.05,2.32-10.72-3c-.15-.06-.18-.12,0-.21l.75-.45s0,0,0-.06h0a0,0,0,0,0,0,0l-.45-.28a.14.14,0,0,0-.15,0c-1.38.88-2.83,1.72-4.33,2.5q-.06,0,0,.09l.45.28a.14.14,0,0,0,.15,0l.78-.46a.51.51,0,0,1,.42-.06l4.16,1.12,3.4,3.91-10.93-3.1c-.12,0-.15-.09-.06-.15l.9-.51s0,0,0-.06l0,0-.45-.27a.14.14,0,0,0-.15,0c-.87.57-1.78,1.11-2.65,1.59-.69-1.95.27-4.12,3-5.66ZM38.61,9.07a13.5,13.5,0,0,1,4.52,1.56c2.86,1.66,3.76,4,2.71,6.14l-4.31-5.23a10.12,10.12,0,0,0-2.92-2.47Zm6.63,8.61a7.93,7.93,0,0,1-2.11,1.71,13.06,13.06,0,0,1-2.53,1.09l-4.34-5.24,9,2.44ZM39.15,20.9a17,17,0,0,1-11.26-1.45,7,7,0,0,1-2.47-2.22ZM27.2,10.21c4.58-2.65,12.07-2.65,16.65,0s4.58,7,0,9.61-12.07,2.65-16.65,0S22.59,12.86,27.2,10.21Zm-.54-.3c4.87-2.83,12.82-2.83,17.7,0s4.88,7.41,0,10.21-12.83,2.83-17.7,0S21.81,12.74,26.66,9.91Z"/><line class="cls-14" x1="40.15" y1="31.62" x2="44.61" y2="28.96"/><line class="cls-15" x1="40.53" y1="43.46" x2="45" y2="40.8"/></g></svg>