<?xml version="1.0" encoding="UTF-8" standalone="no"?>
<svg
   id="Warstwa_1"
   data-name="Warstwa 1"
   viewBox="0 0 148 148"
   version="1.1"
   sodipodi:docname="2.svg"
   inkscape:version="1.1 (c68e22c387, 2021-05-23)"
   xmlns:inkscape="http://www.inkscape.org/namespaces/inkscape"
   xmlns:sodipodi="http://sodipodi.sourceforge.net/DTD/sodipodi-0.dtd"
   xmlns:xlink="http://www.w3.org/1999/xlink"
   xmlns="http://www.w3.org/2000/svg"
   xmlns:svg="http://www.w3.org/2000/svg">
  <sodipodi:namedview
     id="namedview106"
     pagecolor="#ffffff"
     bordercolor="#666666"
     borderopacity="1.0"
     inkscape:pageshadow="2"
     inkscape:pageopacity="0.0"
     inkscape:pagecheckerboard="0"
     showgrid="false"
     inkscape:zoom="5.4864865"
     inkscape:cx="73.908867"
     inkscape:cy="73.908867"
     inkscape:window-width="1920"
     inkscape:window-height="1001"
     inkscape:window-x="-9"
     inkscape:window-y="-9"
     inkscape:window-maximized="1"
     inkscape:current-layer="Warstwa_1" />
  <defs
     id="defs61">
    <style
       id="style2">.cls-1{opacity:0.15;fill:url(#Gradient_bez_nazwy);}.cls-1,.cls-5,.cls-9{isolation:isolate;}.cls-2{fill:url(#Gradient_bez_nazwy_2);}.cls-3{fill:url(#Gradient_bez_nazwy_3);}.cls-4{fill:url(#Gradient_bez_nazwy_4);}.cls-5,.cls-9{opacity:0.3;}.cls-5{fill:url(#Gradient_bez_nazwy_5);}.cls-6{fill:url(#Gradient_bez_nazwy_6);}.cls-7{fill:url(#Gradient_bez_nazwy_7);}.cls-8{fill:url(#Gradient_bez_nazwy_8);}.cls-9{fill:#fff;}.cls-10{fill:url(#Gradient_bez_nazwy_9);}.cls-11{fill:url(#Gradient_bez_nazwy_10);}.cls-12{fill:url(#Gradient_bez_nazwy_11);}.cls-13{fill:url(#Gradient_bez_nazwy_12);}.cls-14{fill:url(#Gradient_bez_nazwy_13);}.cls-15{fill:url(#Gradient_bez_nazwy_14);}.cls-16{fill:#f70e28;}.cls-16,.cls-17,.cls-18,.cls-19,.cls-20,.cls-21{fill-rule:evenodd;}.cls-17{fill:#9195a8;}.cls-18{fill:url(#Gradient_bez_nazwy_15);}.cls-19{fill:url(#Gradient_bez_nazwy_20);}.cls-20{fill:#818696;opacity:0.6;}.cls-21{fill:url(#Gradient_bez_nazwy_63);}</style>
    <linearGradient
       id="Gradient_bez_nazwy"
       x1="114.65"
       y1="1240.9"
       x2="35"
       y2="1183.26"
       gradientTransform="translate(0 -1105.84)"
       gradientUnits="userSpaceOnUse">
      <stop
         offset="0"
         id="stop4" />
      <stop
         offset="1"
         id="stop6" />
    </linearGradient>
    <linearGradient
       id="Gradient_bez_nazwy_2"
       x1="79.2"
       y1="1212.49"
       x2="8"
       y2="1212.49"
       gradientTransform="translate(0 -1105.84)"
       gradientUnits="userSpaceOnUse">
      <stop
         offset="0"
         stop-color="#840016"
         id="stop9" />
      <stop
         offset="1"
         stop-color="#510a18"
         id="stop11" />
    </linearGradient>
    <linearGradient
       id="Gradient_bez_nazwy_3"
       x1="-132.89"
       y1="1212.49"
       x2="-131.73"
       y2="1212.49"
       gradientTransform="translate(0 -1105.84)"
       gradientUnits="userSpaceOnUse">
      <stop
         offset="0"
         stop-color="#fc2632"
         id="stop14" />
      <stop
         offset="1"
         stop-color="#f70e28"
         id="stop16" />
    </linearGradient>
    <linearGradient
       id="Gradient_bez_nazwy_4"
       x1="114.7"
       y1="1218.7"
       x2="35.01"
       y2="1161.03"
       gradientTransform="translate(0 -1105.84)"
       gradientUnits="userSpaceOnUse">
      <stop
         offset="0"
         stop-color="#cb0c18"
         id="stop19" />
      <stop
         offset="1"
         stop-color="#670a18"
         id="stop21" />
    </linearGradient>
    <linearGradient
       id="Gradient_bez_nazwy_5"
       x1="102.24"
       y1="42.62"
       x2="46.84"
       y2="2.54"
       gradientTransform="translate(0 59.75)"
       xlink:href="#Gradient_bez_nazwy" />
    <linearGradient
       id="Gradient_bez_nazwy_6"
       x1="18.73"
       y1="18"
       x2="68.93"
       y2="18"
       gradientTransform="translate(0 59.75)"
       gradientUnits="userSpaceOnUse">
      <stop
         offset="0"
         stop-color="#989aad"
         id="stop25" />
      <stop
         offset="1"
         stop-color="#98a0b7"
         id="stop27" />
    </linearGradient>
    <linearGradient
       id="Gradient_bez_nazwy_7"
       x1="131.83"
       y1="18"
       x2="132.63"
       y2="18"
       gradientTransform="translate(0 59.75)"
       gradientUnits="userSpaceOnUse">
      <stop
         offset="0"
         stop-color="#e7e9e9"
         id="stop30" />
      <stop
         offset="1"
         stop-color="#98aacd"
         id="stop32" />
    </linearGradient>
    <linearGradient
       id="Gradient_bez_nazwy_8"
       x1="102.3"
       y1="20.99"
       x2="46.9"
       y2="-19.09"
       gradientTransform="translate(0 59.75)"
       gradientUnits="userSpaceOnUse">
      <stop
         offset="0"
         stop-color="#cdd3db"
         id="stop35" />
      <stop
         offset="1"
         stop-color="#acb0c2"
         id="stop37" />
    </linearGradient>
    <linearGradient
       id="Gradient_bez_nazwy_9"
       x1="18.73"
       y1="3.25"
       x2="68.93"
       y2="3.25"
       xlink:href="#Gradient_bez_nazwy_6" />
    <linearGradient
       id="Gradient_bez_nazwy_10"
       x1="131.82"
       y1="3.25"
       x2="132.62"
       y2="3.25"
       xlink:href="#Gradient_bez_nazwy_7" />
    <linearGradient
       id="Gradient_bez_nazwy_11"
       x1="102.29"
       y1="6.28"
       x2="46.89"
       y2="-33.8"
       xlink:href="#Gradient_bez_nazwy_8" />
    <linearGradient
       id="Gradient_bez_nazwy_12"
       x1="18.73"
       y1="-11.65"
       x2="68.93"
       y2="-11.65"
       xlink:href="#Gradient_bez_nazwy_6" />
    <linearGradient
       id="Gradient_bez_nazwy_13"
       x1="131.83"
       y1="-11.65"
       x2="132.63"
       y2="-11.65"
       xlink:href="#Gradient_bez_nazwy_7" />
    <linearGradient
       id="Gradient_bez_nazwy_14"
       x1="102.33"
       y1="-8.69"
       x2="46.93"
       y2="-48.77"
       xlink:href="#Gradient_bez_nazwy_8" />
    <linearGradient
       id="Gradient_bez_nazwy_15"
       x1="2853.73"
       y1="4441.78"
       x2="2914.84"
       y2="4463.69"
       gradientTransform="matrix(-0.52, 0.86, -0.86, -0.52, 5414.09, -101.71)"
       xlink:href="#Gradient_bez_nazwy_8" />
    <linearGradient
       id="Gradient_bez_nazwy_20"
       x1="2892.34"
       y1="4451.9"
       x2="2939.9"
       y2="4464.95"
       gradientTransform="matrix(-0.52, 0.86, -0.86, -0.52, 5414.09, -101.71)"
       gradientUnits="userSpaceOnUse">
      <stop
         offset="0.51"
         stop-color="#e7e9e9"
         id="stop47" />
      <stop
         offset="0.73"
         stop-color="#b1b4c3"
         id="stop49" />
      <stop
         offset="0.9"
         stop-color="#8f92aa"
         id="stop51" />
      <stop
         offset="0.99"
         stop-color="#8285a1"
         id="stop53" />
    </linearGradient>
    <linearGradient
       id="Gradient_bez_nazwy_63"
       x1="2892.38"
       y1="4449.72"
       x2="2882.36"
       y2="4450.98"
       gradientTransform="matrix(-0.52, 0.86, -0.86, -0.52, 5414.09, -101.71)"
       gradientUnits="userSpaceOnUse">
      <stop
         offset="0.25"
         stop-color="#cb0c18"
         id="stop56" />
      <stop
         offset="1"
         stop-color="#f70e28"
         id="stop58" />
    </linearGradient>
  </defs>
  <polygon
     class="cls-1"
     points="8 105.6 74 144.1 139.9 105.6 74 67.2 8 105.6"
     id="polygon63" />
  <polygon
     class="cls-2"
     points="79.2 118.8 8 83.4 8 91.4 74 129.9 79.2 118.8"
     id="polygon65"
     style="fill:#2c1b74;fill-opacity:1" />
  <polygon
     class="cls-3"
     points="139.9 91 139.9 83.4 74 120 74 129.9 139.9 91"
     id="polygon67"
     style="fill:#4a2ec4;fill-opacity:1" />
  <polygon
     class="cls-4"
     points="8 83.4 74 121.9 140 83.4 74.2 45 8 83.4"
     id="polygon69"
     style="fill:#06155a;fill-opacity:1" />
  <polygon
     class="cls-5"
     points="28.1 81.9 74.2 108.6 119.8 81.9 74 55.1 28.1 81.9"
     id="polygon71" />
  <polygon
     class="cls-6"
     points="78.4 76.5 28.2 60.3 28.2 68.4 74.1 95.2 78.4 76.5"
     id="polygon73" />
  <polygon
     class="cls-7"
     points="119.9 68.4 119.9 60.3 74.1 76.6 74.1 95.2 119.9 68.4"
     id="polygon75" />
  <polygon
     class="cls-8"
     points="28.2 60.3 74.1 87.1 119.9 60.3 74 33.5 28.2 60.3"
     id="polygon77" />
  <polygon
     class="cls-9"
     points="83.5 39 37.6 65.8 28.1 60.4 74 33.5 83.5 39"
     id="polygon79" />
  <polygon
     class="cls-10"
     points="78.4 61.7 28.2 45.5 28.2 53.7 74.2 80.5 78.4 61.7"
     id="polygon81" />
  <polygon
     class="cls-11"
     points="119.9 53.7 119.9 45.5 74.1 61.9 74.2 80.5 119.9 53.7"
     id="polygon83" />
  <polygon
     class="cls-12"
     points="28.2 45.6 74.1 72.3 119.9 45.6 74 18.8 28.2 45.6"
     id="polygon85" />
  <polygon
     class="cls-9"
     points="83.5 24.3 37.6 51.1 28.1 45.6 74 18.8 83.5 24.3"
     id="polygon87" />
  <polygon
     class="cls-13"
     points="78.4 46.8 28.2 30.6 28.2 38.8 74.1 65.6 78.4 46.8"
     id="polygon89" />
  <polygon
     class="cls-14"
     points="119.9 38.8 119.9 30.6 74.1 47 74.1 65.6 119.9 38.8"
     id="polygon91" />
  <polygon
     class="cls-15"
     points="28.2 30.6 74.1 57.4 119.9 30.6 74 3.9 28.2 30.6"
     id="polygon93" />
  <polygon
     class="cls-9"
     points="83.5 9.4 37.6 36.2 28.1 30.7 74 3.9 83.5 9.4"
     id="polygon95" />
  <path
     id="Elipsa_820"
     data-name="Elipsa 820"
     class="cls-16"
     d="M71.3,10.6a3.19,3.19,0,0,0-3,0,.88.88,0,0,0-.4,1.3c.1.2.3.4.4.4a3.19,3.19,0,0,0,3,0,.88.88,0,0,0,.4-1.3C71.6,10.9,71.5,10.7,71.3,10.6Z"
     style="fill:#4a2ec4;fill-opacity:1" />
  <path
     id="Elipsa_820-2"
     data-name="Elipsa 820-2"
     class="cls-16"
     d="M66.4,13.4a3.19,3.19,0,0,0-3,0,.88.88,0,0,0-.4,1.3c.1.2.3.4.4.4a3.19,3.19,0,0,0,3,0,.88.88,0,0,0,.4-1.3C66.8,13.7,66.6,13.5,66.4,13.4Z"
     style="fill:#4a2ec4;fill-opacity:1" />
  <path
     id="Elipsa_820-3"
     data-name="Elipsa 820-3"
     class="cls-16"
     d="M76,7.9a3.19,3.19,0,0,0-3,0,.93.93,0,0,0-.6,1.2.9.9,0,0,0,.6.6,3.19,3.19,0,0,0,3,0,.93.93,0,0,0,.6-1.2A.9.9,0,0,0,76,7.9Z"
     style="fill:#4a2ec4;fill-opacity:1" />
  <path
     id="Kształt_9"
     data-name="Kształt 9"
     class="cls-17"
     d="M67.89,27.78a21.31,21.31,0,0,1,9.89-2.52c-.94.53-1.31,1.37-.1,2.11,2.45,1.51,6.09,0,9.5,3.93L90,34.52,75.16,30.3c-.23-.06-.26-.16,0-.28l1.06-.62a.06.06,0,0,0,0-.08.08.08,0,0,0,0,0l-.63-.36a.22.22,0,0,0-.21,0q-2.88,1.81-6,3.47c-.06,0,0,.09,0,.12l.63.37a.26.26,0,0,0,.21,0l1.07-.62a.65.65,0,0,1,.59-.08l5.77,1.55,4.69,5.4L67.22,34.84c-.19-.05-.21-.13-.08-.21l1.22-.7a.09.09,0,0,0,0-.09s0,0,0,0l-.63-.37a.26.26,0,0,0-.21,0c-1.21.78-2.48,1.53-3.66,2.23-1-2.76.33-5.74,4-7.89Zm14.77-2.17a19.14,19.14,0,0,1,6.27,2.16c4,2.3,5.23,5.58,3.76,8.5l-6-7.27a14.72,14.72,0,0,0-4-3.39Zm9.19,11.94a10.86,10.86,0,0,1-2.92,2.39,17.29,17.29,0,0,1-3.51,1.51l-6-7.24,12.48,3.34ZM83.42,42c-5.25,1.08-11.33.42-15.53-2a9.79,9.79,0,0,1-3.42-3.07l19,5.08ZM66.91,27.22c6.35-3.68,16.66-3.69,23,0s6.35,9.63,0,13.31-16.66,3.68-23,0S60.55,30.89,66.91,27.22Zm-.73-.43c6.76-3.9,17.72-3.91,24.47,0s6.75,10.24,0,14.15-17.71,3.91-24.46,0-6.76-10.24,0-14.15Z"
     style="fill:#4f47f2;fill-opacity:1" />
  <path
     id="Kształt_506"
     data-name="Kształt 506"
     class="cls-18"
     d="M104.15,51.64,98.3,57.5l.76,5.32c-.42.7-.87,1.48-1.35,2.31l-4.84,1.42-2.71,8.06,4.41,2.82-4.94,6.15,1.86,5.33L96.58,92l-.27.66L101.84,96,109.43,88l5.7,3.44.22-9.24,5.3-8.93L129,68.13l-5.41-3.28,4-10.86-2.29-1.38-8.46-5-5.38.2-2.93,6.53Z" />
  <path
     id="Kształt_506-2"
     data-name="Kształt 506-2"
     class="cls-19"
     d="M109.54,55.17,103.73,61l.75,5.28c-.42.7-.87,1.48-1.34,2.3L98.33,70l-2.71,8,4,1a22.5,22.5,0,0,0-.11,2.46L95.1,86.94,97,92.47l4.84-3.84a4.9,4.9,0,0,0,1.35.9l-1.39,6.41,5.55-.41,3-6.45a22.47,22.47,0,0,0,2.26-1.35l2.5,3.71,5.57-5.61-.89-5.69c.52-.79,1-1.62,1.45-2.46l5-1.41L129,68.13l-4.29-.59a23.48,23.48,0,0,0,.1-2.37l4.62-5.67L127.54,54l-5.23,4.21a4.69,4.69,0,0,0-1.35-.9L122.32,51l-5.52.3-2.86,6.41a13.27,13.27,0,0,0-2,1.08Z" />
  <path
     id="Elipsa_820-2-2"
     data-name="Elipsa 820"
     class="cls-20"
     d="M117.54,70.41a11.16,11.16,0,0,1-5.29,8.8c-2.9,1.56-5.22.16-5.19-3.13a11.16,11.16,0,0,1,5.29-8.8C115.24,65.72,117.57,67.12,117.54,70.41Z" />
  <path
     id="Elipsa_820-3-2"
     data-name="Elipsa 820"
     class="cls-21"
     d="M115.94,71.27a7.75,7.75,0,0,1-3.68,6.12c-2,1.09-3.62.12-3.61-2.17a7.74,7.74,0,0,1,3.69-6.12C114.35,68,116,69,115.94,71.27Z"
     style="fill:#4a2ec4;fill-opacity:1" />
</svg>
