<svg xmlns="http://www.w3.org/2000/svg" xmlns:xlink="http://www.w3.org/1999/xlink" viewBox="0 0 68 68"><defs><style>.cls-1{fill:#c4d9e8;opacity:0.5;}.cls-1,.cls-2,.cls-3,.cls-4,.cls-5,.cls-6{fill-rule:evenodd;}.cls-2,.cls-7{fill:#8552d7;}.cls-3{fill:#38055a;}.cls-4{fill:url(#Безымянный_градиент_99);}.cls-5{fill:url(#Безымянный_градиент_7);}.cls-6{fill:url(#Безымянный_градиент_98);}.cls-8{fill:#150035;}.cls-9{fill:#fff;}</style><linearGradient id="Безымянный_градиент_99" x1="64.63" y1="740.42" x2="9.51" y2="747.33" gradientTransform="translate(0 -722)" gradientUnits="userSpaceOnUse"><stop offset="0" stop-color="#e7e9e9"/><stop offset="0.16" stop-color="#e0e2e4"/><stop offset="0.4" stop-color="#cdcfd7"/><stop offset="0.68" stop-color="#aeb1c0"/><stop offset="0.99" stop-color="#8386a2"/><stop offset="1" stop-color="#8285a1"/></linearGradient><linearGradient id="Безымянный_градиент_7" x1="63.67" y1="732.91" x2="9.41" y2="739.71" gradientTransform="translate(0 -722)" gradientUnits="userSpaceOnUse"><stop offset="0" stop-color="#cdd3db"/><stop offset="1" stop-color="#acb0c2"/></linearGradient><linearGradient id="Безымянный_градиент_98" x1="24.76" y1="744.17" x2="59.9" y2="720.78" gradientTransform="translate(0 -722)" gradientUnits="userSpaceOnUse"><stop offset="0" stop-color="#cdd3db"/><stop offset="0.98" stop-color="#acb0c2"/></linearGradient></defs><g id="_1" data-name="1"><path class="cls-1" d="M54.12,40.74a31.81,31.81,0,0,0-29.4,0c-6.9,4.1-7.9,10.3-3.1,15l-13.4,7.6a1.61,1.61,0,0,0-.6,2.2,1.17,1.17,0,0,0,.6.6l2.4,1.4a3.25,3.25,0,0,0,3.3,0l14.2-8A31.74,31.74,0,0,0,54.22,58C62.22,53.24,62.22,45.44,54.12,40.74Z"/><path class="cls-2" d="M60.22,29.74c-9.2-4.8-26.2-5.9-35.5-1.1a10,10,0,0,1-6.1,1.1v7.7a8.77,8.77,0,0,0,3,6.2l-14.3,1.7v7.3a1.42,1.42,0,0,0,.9,1.4l2.4,1.4a3.25,3.25,0,0,0,3.3,0l14.2-8a31.74,31.74,0,0,0,26.1-1.5c4-2.3,6-5.4,6.1-8.4S60.22,31.74,60.22,29.74Z"/><path class="cls-3" d="M54.12,21.24a31.81,31.81,0,0,0-29.4,0c-6.9,4.1-7.9,10.3-3.1,15l-13.4,7.6a1.66,1.66,0,0,0-.6,2.2,1.7,1.7,0,0,0,.6.6l2.4,1.4a3.25,3.25,0,0,0,3.3,0l14.2-8a31.74,31.74,0,0,0,26.1-1.5C62.22,33.74,62.22,26,54.12,21.24Z"/><path class="cls-4" d="M60.22,12.44c-9.2-4.8-26.2-5.9-35.5-1.1a10,10,0,0,1-6.1,1.1V20a8.77,8.77,0,0,0,3,6.2L7.32,28v7.3a1.65,1.65,0,0,0,.9,1.5l2.3,1.3a3.25,3.25,0,0,0,3.3,0l14.2-8a31.74,31.74,0,0,0,26.1-1.5c4-2.3,6-5.4,6.1-8.4S60.22,14.54,60.22,12.44Z"/><path class="cls-5" d="M54.12,3.94a31.81,31.81,0,0,0-29.4,0c-6.9,4.1-7.9,10.3-3.1,15l-13.4,7.6a1.66,1.66,0,0,0-.6,2.2,1.7,1.7,0,0,0,.6.6l2.4,1.4a3.25,3.25,0,0,0,3.3,0l14.2-8a31.74,31.74,0,0,0,26.1-1.5C62.22,16.44,62.22,8.74,54.12,3.94Z"/><path id="Elipsa_820" data-name="Elipsa 820" class="cls-6" d="M26.82,4.94a27.56,27.56,0,0,1,25.3,0c7,4.1,7,10.8,0,14.9a27.56,27.56,0,0,1-25.3,0C19.82,15.74,19.82,9,26.82,4.94Z"/><path class="cls-7" d="M42,13.28l-.4-.22a3.11,3.11,0,0,0-.55-.53l-.91-.69a6.84,6.84,0,0,0-2.55-1.44c-.86-.12-1.32.53-2,.83a2.93,2.93,0,0,0-.47.24l-.53.1-.1.85a1.73,1.73,0,0,0,.88,1.44l.91.7a4.79,4.79,0,0,0,2.2.89,4.3,4.3,0,0,0,2.33-.26c.7-.29,1.07-.68,1.14-1.15l0-.2ZM40.07,14.4a4.49,4.49,0,0,1-1.88-.21c-.53-.1-.56.28-1,0l-.92-.69a1.45,1.45,0,0,1-.67-.95c0-.31.18-.56.62-.74a2.47,2.47,0,0,1,1.46-.14,3.4,3.4,0,0,1,1.44.63l.92.7a1.34,1.34,0,0,1,.66,1C40.72,14.22,40.52,14.21,40.07,14.4Z"/><path class="cls-8" d="M38.52,15.55h-.11a4.85,4.85,0,0,1-2.25-.91l-.91-.69a1.87,1.87,0,0,1-.92-1.53l.11-.85v-.07l.57-.1a4.12,4.12,0,0,1,.47-.25,3.63,3.63,0,0,0,.64-.36,2.07,2.07,0,0,1,1.43-.48h0A6.26,6.26,0,0,1,40,11.66l1.06.8a3.11,3.11,0,0,1,.55.53l.45.24-.11.82c-.07.51-.47.92-1.19,1.23A4.4,4.4,0,0,1,38.52,15.55Zm-3.91-3.9c0,.19-.09.75-.09.78a1.68,1.68,0,0,0,.84,1.36l.92.69a4.69,4.69,0,0,0,2.16.88,4.22,4.22,0,0,0,2.28-.26c.65-.27,1-.63,1.07-1.07l.09-.69-.37-.22a3.35,3.35,0,0,0-.54-.51l-1-.8a6.3,6.3,0,0,0-2.36-1.32,1.83,1.83,0,0,0-1.32.44,4.47,4.47,0,0,1-.68.39,3.14,3.14,0,0,0-.45.23l0,0Zm2.85,2.72a.74.74,0,0,1-.32-.15l-.92-.7a1.51,1.51,0,0,1-.7-1c0-.35.2-.63.67-.83a2.67,2.67,0,0,1,1.52-.14,3.36,3.36,0,0,1,1.47.64l.92.7a1.48,1.48,0,0,1,.71,1c0,.32-.18.39-.45.49l-.26.1,0-.09,0,.09a3.07,3.07,0,0,1-1.55-.13l-.38-.08a.71.71,0,0,0-.43,0A.64.64,0,0,1,37.46,14.37Zm0-2.68a2.37,2.37,0,0,0-1.25.15c-.39.17-.58.38-.56.65a1.36,1.36,0,0,0,.64.88l.92.7a.35.35,0,0,0,.42.07.93.93,0,0,1,.53,0l.38.08a3.15,3.15,0,0,0,1.44.14h0l.26-.11c.28-.1.34-.12.33-.3A1.3,1.3,0,0,0,40,13l-.92-.7a3.35,3.35,0,0,0-1.39-.61Z"/><path class="cls-8" d="M41.15,13.69l-.46.36c0,.1-.11.15-.25.2l0,0h-.07l-.26.1a1.87,1.87,0,0,1-.94,0l-.43,0-.33,0-.12,1a1,1,0,0,0,.18,0,4.27,4.27,0,0,0,2.32-.25l.22-.1Z"/><path class="cls-8" d="M38.52,15.55h-.11l-.13,0-.14,0,.15-1.21.41.05.43,0h0a1.7,1.7,0,0,0,.88,0l.26-.1.12,0c.12-.05.17-.09.19-.15v0l.66-.53-.21,1.68-.05,0-.22.1A4.3,4.3,0,0,1,38.52,15.55Zm-.17-.21h.09a4.23,4.23,0,0,0,2.28-.25l.16-.08L41,13.9l-.26.21a.53.53,0,0,1-.28.23l-.06,0h-.07l-.26.09a1.78,1.78,0,0,1-1,0l-.44,0-.23,0Z"/><path class="cls-8" d="M35.61,12.49c0-.31.18-.56.61-.74a2.5,2.5,0,0,1,1-.18l.13-1.07-.43-.05a11.75,11.75,0,0,0-1.33.73l-.23.48-.23,0v-.22l-.09.06-.53.09s-.1.84-.11.85A1.54,1.54,0,0,0,35,13.58l.09-.74.07-.49v-.29l.34,0Z"/><path class="cls-8" d="M35.05,13.77l-.13-.13a1.6,1.6,0,0,1-.59-1.24l.11-.85v-.07l.57-.1,0,0,.18-.1v.3h.08l.22-.45h0a3.92,3.92,0,0,0,.56-.33,3.23,3.23,0,0,1,.78-.41h0l.53.07-.16,1.24h-.09a2.27,2.27,0,0,0-1,.18c-.39.16-.58.38-.56.64l.06.73-.35-1-.18,0v.18Zm-.44-2.13c0,.2-.09.75-.09.78a1.3,1.3,0,0,0,.39.95l.13-1V12l.5.06,0,.12a1.11,1.11,0,0,1,.6-.47,2.57,2.57,0,0,1,1-.2l.12-.89-.32,0a3,3,0,0,0-.72.39,4.17,4.17,0,0,1-.55.32l-.25.51-.37,0v-.16Z"/><path class="cls-9" d="M41.12,11.79A1.73,1.73,0,0,1,42,13.24c0,.5-.42.9-1.15,1.21a4.36,4.36,0,0,1-2.32.26,4.8,4.8,0,0,1-2.21-.9l-.91-.69a1.76,1.76,0,0,1-.88-1.45c0-.49.4-.89,1.1-1.18A4.36,4.36,0,0,1,38,10.21a4.68,4.68,0,0,1,2.22.89Zm-1.9-.29a3.34,3.34,0,0,0-1.43-.62,2.49,2.49,0,0,0-1.47.14c-.43.18-.64.42-.62.74a1.45,1.45,0,0,0,.67.94l.92.7a3.36,3.36,0,0,0,1.43.64,2.45,2.45,0,0,0,1.43-.12q.68-.28.66-.75a1.43,1.43,0,0,0-.67-1Z"/><path class="cls-8" d="M38.61,14.81H38.5a4.82,4.82,0,0,1-2.24-.91l-.92-.69a1.83,1.83,0,0,1-.91-1.53c0-.53.42-1,1.16-1.27A4.51,4.51,0,0,1,38,10.12a4.83,4.83,0,0,1,2.27.9l.91.7a1.79,1.79,0,0,1,.9,1.53c0,.54-.45,1-1.2,1.28A4.28,4.28,0,0,1,38.61,14.81ZM37.9,10.3a4.29,4.29,0,0,0-2.24.27c-.67.28-1,.66-1,1.11a1.7,1.7,0,0,0,.85,1.37l.91.69a4.62,4.62,0,0,0,2.16.87,4.21,4.21,0,0,0,2.28-.25c.68-.29,1-.66,1.09-1.12a1.65,1.65,0,0,0-.83-1.38l-.92-.69A4.46,4.46,0,0,0,38,10.31Zm1,3.87-.21,0a3.44,3.44,0,0,1-1.46-.65l-.92-.7a1.53,1.53,0,0,1-.71-1c0-.35.2-.63.67-.83a2.68,2.68,0,0,1,1.52-.14,3.45,3.45,0,0,1,1.48.64l.92.7a1.46,1.46,0,0,1,.7,1c0,.36-.23.64-.71.85A2.59,2.59,0,0,1,38.91,14.17ZM37.61,11a2.42,2.42,0,0,0-1.26.15c-.39.17-.57.38-.55.65a1.34,1.34,0,0,0,.63.88l.92.7a3.36,3.36,0,0,0,1.39.62,2.33,2.33,0,0,0,1.37-.11c.42-.18.61-.4.6-.67a1.28,1.28,0,0,0-.62-.89l-.93-.7A3.12,3.12,0,0,0,37.77,11Z"/><rect class="cls-8" x="35.24" y="13.59" width="0.76" height="0.19" transform="translate(17.59 47.31) rotate(-82.83)"/><rect class="cls-8" x="37.27" y="14.78" width="0.76" height="0.19" transform="translate(18.2 50.37) rotate(-82.83)"/><path class="cls-7" d="M49.2,9.37h0l-.44,0v.05L45.12,6.7h0l-.24.1V6.66l-.12-.07a5.94,5.94,0,0,0-.69-.09h0L44,7.17h0L45.56,9.8h0L42.38,8.68h0l-1.5-.2h0l0-.07a.89.89,0,0,0-.13-.18l-1,.06h0L39.71,9h0l4.61,3.5h0l.89-.37h0l.08-.67h0l-.84-.27h0l-.29,0v.13L41.84,9.54v0l4.89,1.94h0l.61-.26h0l.08-.67h0l-.57-.16h0L45.5,8.06h0l3.32,2.51h0l.89-.37h0l.09-.68h0Z"/><path class="cls-8" d="M44.31,12.57l0,0L39.62,9V9l.09-.67V8.21h.1c.92-.06.95-.05,1-.05s.07,0,.19.21l0,0,1.45.2,2.93,1L43.89,7.19v0L44,6.45l.05,0h0c.67.06.71.09.73.11l.11.07,0,0v0l.17-.07,0,0,3.56,2.71.49,0,.7.17v.08l-.09.72-.05,0-.93.39,0,0-3-2.29,1.15,2,.62.16v.08l-.09.72,0,0-.65.27,0,0L42.33,9.8l1.76,1.34v-.05l.37,0h0l.9.29v.08l-.09.71,0,0ZM39.8,8.93l4.54,3.45.8-.34.07-.56-.76-.24h-.2l0,.2L41.71,9.54l.13-.11,4.89,1.94.54-.23.07-.55-.54-.15L45.37,8l.17,0,3.31,2.52.81-.34.06-.55-.53-.13-.35,0,0,.13L45.1,6.79l-.31.14V6.71l-.07,0-.57-.07-.07.57,1.59,2.65-.08.1,0,0L42.36,8.76l-1.47-.19-.16.06.06-.2a.44.44,0,0,0-.06-.1l-.86.05Z"/><path class="cls-9" d="M46.05,9.85h0l-2-3.34h0L45.2,6h0l4.62,3.5h0l-.89.38h0L45.61,7.38h0l1.85,3.14h0l-.61.25h0L41.94,8.85h0l3.38,2.56h0l-.89.37h0L39.79,8.3h0L41,7.8h0Z"/><path class="cls-8" d="M44.4,11.9l0,0L39.7,8.34l0-.11h.05L41,7.71h0l4.89,2L44,6.51l0-.07,0,0,1.18-.49,0,0,4.67,3.53v.1l0,0-.94.4,0,0-3-2.29,1.68,2.85,0,.07-.68.29,0,0L42.42,9.13l3,2.25v.1l-.05,0ZM40,8.32l4.46,3.38.71-.3L41.79,8.87l.13-.12,4.9,1.94.49-.2L45.45,7.34l.18,0L48.94,9.8l.71-.3L45.19,6.12l-1,.42,2,3.34-.14.06L41,7.9Z"/><polygon class="cls-8" points="44.41 11.8 44.33 12.47 44.33 12.47 45.22 12.1 45.22 12.1 45.3 11.43 45.3 11.43 44.41 11.8 44.41 11.8"/><path class="cls-8" d="M44.32,12.57l-.08-.06v0l.09-.72.05,0,.93-.39.08.06v0l-.09.71,0,0Zm.17-.71-.06.48.71-.3.06-.48Z"/><polygon class="cls-8" points="46.82 10.79 46.74 11.46 46.74 11.46 47.35 11.2 47.35 11.2 47.43 10.53 47.43 10.53 46.82 10.78 46.82 10.79"/><path class="cls-8" d="M46.73,11.56l-.08-.06v-.05l.09-.72.7-.3.08.06v0l-.09.72,0,0Zm.17-.72-.06.48.43-.18.06-.48Z"/><polygon class="cls-8" points="48.93 9.9 48.84 10.57 48.84 10.57 49.73 10.2 49.73 10.2 49.82 9.53 49.82 9.52 48.93 9.9 48.93 9.9"/><path class="cls-8" d="M48.83,10.67l-.08-.06v0l.09-.72,0,0,.93-.39.08.06v0l-.09.72-.05,0ZM49,10l-.07.48.72-.3.06-.48Z"/><polygon class="cls-8" points="44.43 7.11 44.34 7.78 44.34 7.78 43.98 7.17 43.98 7.17 44.06 6.5 44.06 6.5 44.43 7.11 44.43 7.11"/><path class="cls-8" d="M44.3,7.88l0,0-.38-.64v0l.1-.73.11,0,0,0,.38.63-.1.76Zm-.23-.72.22.37.05-.4-.22-.38Z"/><polygon class="cls-8" points="46.7 8.21 46.61 8.88 46.61 8.88 46.33 8.65 46.33 8.65 45.59 7.4 45.59 7.39 46.7 8.21 46.7 8.21"/><path class="cls-8" d="M46.59,9l0,0-.29-.24-.78-1.32.1-.1.06,0,1.15.84v.05l-.09.72Zm-.2-.38.16.12.06-.47-.74-.55Z"/><polygon class="cls-8" points="43.68 9.54 43.6 10.13 43.6 10.14 41.93 8.87 41.94 8.87 43.68 9.54 43.68 9.54"/><path class="cls-8" d="M43.59,10.23l0,0L41.82,8.89l.08-.13.07,0,1.8.69v.07l-.08.64ZM42.45,9.16l1.09.82.05-.39Z"/><polygon class="cls-8" points="40.34 8.71 40.26 9.39 40.26 9.39 39.71 8.97 39.71 8.97 39.79 8.3 39.79 8.3 40.34 8.71 40.34 8.71"/><path class="cls-8" d="M40.24,9.49l0,0L39.62,9V9l.09-.72.09,0,.05,0,.58.45v.05l-.09.72Zm-.44-.56.39.3.06-.48-.39-.3Z"/><rect class="cls-8" x="40.48" y="9.36" width="0.68" height="0.17" transform="translate(26.35 48.76) rotate(-82.83)"/><rect class="cls-8" x="45.65" y="10.77" width="0.68" height="0.17" transform="translate(29.48 55.13) rotate(-82.83)"/><rect class="cls-8" x="43.26" y="11.47" width="0.68" height="0.17" transform="translate(26.7 53.37) rotate(-82.83)"/><rect class="cls-8" x="46.9" y="8.93" width="0.68" height="0.17" transform="translate(32.4 54.76) rotate(-82.83)"/><path class="cls-7" d="M35.32,16.1l-.5-.12h0l-.56,0h0l-.1.77h0c.36.27.52.52.49.76s-.22.21-.64.39-1.24-.2-1.78-.31-.72.3-1.16,0l-1-.78a1.57,1.57,0,0,1-.72-1c0-.32.14-.57.56-.75a2.48,2.48,0,0,1,1.27-.2,2.37,2.37,0,0,1,1.15.48h0l1-.42h0l.1-.77h0l-.5,0h0l-1-.5h0l-1.08-.08h0L30,14h0l.08.33h0a4.74,4.74,0,0,0-.86.27,2.69,2.69,0,0,0-.34.17s0-.06,0-.06a6.4,6.4,0,0,0-.62.2h0s-.11.88-.11.89a1.9,1.9,0,0,0,1,1.5L30,18a4.94,4.94,0,0,0,2.28.94,4.36,4.36,0,0,0,2.37-.26c.71-.3,1.1-.66,1.19-1.09l.1-.84h0l-.66-.68Z"/><path class="cls-8" d="M32.43,19.08l-.13,0A5,5,0,0,1,30,18.11l-1-.77a2,2,0,0,1-1-1.58s.11-.89.11-.9V14.8l.06,0a3,3,0,0,1,.66-.21l.06,0,.26-.12a5.36,5.36,0,0,1,.77-.26l-.08-.31.09,0,.86-.35h0l1.1.08h0l1,.49.51,0,.06.07v0l-.11.83,0,0-1,.43,0,0A2.3,2.3,0,0,0,31.14,15a2.37,2.37,0,0,0-1.21.19c-.38.16-.54.37-.51.64a1.57,1.57,0,0,0,.68.92l1,.77a.46.46,0,0,0,.52.06,1.25,1.25,0,0,1,.6,0l.53.15a2.16,2.16,0,0,0,1.2.16l.31-.11c.22-.07.25-.09.27-.19s-.13-.43-.46-.68l-.05,0v-.06l.11-.85h.08l.58,0,.53.12,0,0,.7.73v0l-.11.85c-.09.46-.51.85-1.24,1.16A4.41,4.41,0,0,1,32.43,19.08Zm-4.15-4.14c0,.2-.1.8-.1.83a1.81,1.81,0,0,0,.91,1.41l1,.77a4.93,4.93,0,0,0,2.23.92,4.36,4.36,0,0,0,2.32-.25c.67-.29,1.05-.63,1.13-1l.1-.78-.61-.64-.46-.11-.47,0-.08.64c.37.29.52.56.49.82s-.18.28-.4.36l-.3.11a2.26,2.26,0,0,1-1.33-.17l-.51-.14a1,1,0,0,0-.5.05.66.66,0,0,1-.7-.09l-1-.78a1.66,1.66,0,0,1-.76-1c-.05-.37.16-.65.62-.85a2.48,2.48,0,0,1,1.32-.2h0a2.36,2.36,0,0,1,1.14.46l.89-.37.08-.61h-.41l0,0-1-.48-1.05-.08-.75.3.07.28-.05.08h0a4.55,4.55,0,0,0-.84.27l-.33.17-.13.07v-.1Z"/><path class="cls-8" d="M29.89,15.09a2.71,2.71,0,0,1,.94-.21h0l.1-.78h0l-.06-.29h0l-.05-.19h0L30,14h0l.08.33h0a4.65,4.65,0,0,0-.85.27l-.25.12h0c-.07.3-.15.58-.16.64s.29.2.57.29h0A.85.85,0,0,1,29.89,15.09Z"/><path class="cls-8" d="M29.41,15.72l-.1,0c-.56-.18-.66-.28-.63-.39s.06-.27.15-.65v0l0,0,.26-.13a4.32,4.32,0,0,1,.77-.25l-.08-.32.09,0,.89-.34h.07l0,.07.06.2.05.32-.1.87h-.09a2.71,2.71,0,0,0-.9.2h0a.76.76,0,0,0-.49.45Zm-.53-.42a1.74,1.74,0,0,0,.4.18,1.08,1.08,0,0,1,.57-.48h0a3,3,0,0,1,.89-.21l.09-.69-.08-.36-.68.27.07.28,0,.07-.05,0a5.4,5.4,0,0,0-.84.26l-.2.1C28.93,15.09,28.89,15.24,28.88,15.3Z"/><path class="cls-8" d="M34.65,17.55c0,.23-.22.21-.64.39a1.9,1.9,0,0,1-1.09-.12h0l-.45.06h0L32.33,19h0a4.41,4.41,0,0,0,2.36-.26l.34-.16h0l.2-1.63h0l-.62.38h0A.48.48,0,0,1,34.65,17.55Z"/><path class="cls-8" d="M32.43,19.08l-.11,0h-.1V19l.15-1.16.56-.07h0a1.75,1.75,0,0,0,1,.11l.31-.11c.22-.07.25-.09.27-.19h0a.52.52,0,0,0,0-.21l0-.08.75-.45.11.06v.06l-.21,1.69,0,0-.34.16A4.41,4.41,0,0,1,32.43,19.08Zm0-.2h0a4.2,4.2,0,0,0,2.19-.27l.29-.14.17-1.38-.38.23a.6.6,0,0,1,0,.23c0,.23-.18.28-.4.36l-.3.11a1.94,1.94,0,0,1-1.14-.11l-.36,0Z"/><path class="cls-8" d="M28.59,16l0-.72h0l-.17-.48-.26.08h0s-.11.89-.11.9a1.47,1.47,0,0,0,.41,1h0l.1-.77Z"/><path class="cls-8" d="M28.46,16.87l-.05-.05A1.56,1.56,0,0,1,28,15.76s.08-.62.11-.84l0,0,0-.11.25-.09.1,0,.21.59v0l0,.72-.1.84Zm-.18-1.93c0,.19-.1.8-.1.83a1.23,1.23,0,0,0,.24.74l.07-.54,0-.7-.13-.37Z"/><path class="cls-9" d="M35.25,15.59h0c.55.4.78.82.69,1.24s-.48.79-1.18,1.09a4.36,4.36,0,0,1-2.37.26,4.94,4.94,0,0,1-2.28-.94l-1-.77a1.9,1.9,0,0,1-.95-1.5c0-.5.38-.9,1.09-1.2a4.58,4.58,0,0,1,2.2-.36,3.48,3.48,0,0,1,1.89.72v.06l-1,.4h0a2.36,2.36,0,0,0-1.16-.48,2.46,2.46,0,0,0-1.26.2q-.63.27-.57.75a1.65,1.65,0,0,0,.72,1l1,.78a3.67,3.67,0,0,0,1.46.67,2.42,2.42,0,0,0,1.45-.1c.42-.18.64-.38.67-.62s-.13-.49-.49-.76h0Z"/><path class="cls-8" d="M32.53,18.3l-.13,0a5,5,0,0,1-2.32-1l-1-.77a2,2,0,0,1-1-1.58c0-.54.41-1,1.15-1.29a4.79,4.79,0,0,1,2.25-.37,3.62,3.62,0,0,1,1.94.74l0,0v.18l-1.06.44,0,0a2.36,2.36,0,0,0-1.1-.46h0a2.37,2.37,0,0,0-1.21.19c-.38.16-.55.37-.51.64a1.55,1.55,0,0,0,.68.92l1,.77a3.51,3.51,0,0,0,1.43.65A2.31,2.31,0,0,0,34,17.3c.38-.16.59-.35.61-.54s-.12-.43-.45-.67l-.05,0,0-.11,0,0,1-.43.09,0c.58.43.82.88.73,1.34s-.51.85-1.24,1.16A4.41,4.41,0,0,1,32.53,18.3Zm-.92-4.76-.15,0a4.38,4.38,0,0,0-2.15.35c-.67.28-1,.66-1,1.12a1.82,1.82,0,0,0,.9,1.41l1,.77a4.88,4.88,0,0,0,2.23.92,4.27,4.27,0,0,0,2.32-.25c.67-.29,1-.63,1.13-1s-.14-.75-.64-1.12l-.79.33a.89.89,0,0,1,.4.75c0,.28-.27.51-.73.7a2.55,2.55,0,0,1-1.51.11,3.81,3.81,0,0,1-1.5-.69l-1-.78a1.68,1.68,0,0,1-.75-1c0-.37.16-.65.62-.85a2.48,2.48,0,0,1,1.32-.2,2.34,2.34,0,0,1,1.15.46l.8-.33A3.26,3.26,0,0,0,31.61,13.54Z"/><polygon class="cls-8" points="32.41 14.6 32.31 15.38 32.31 15.38 33.3 14.96 33.3 14.96 33.4 14.19 33.4 14.19 32.41 14.6 32.41 14.6"/><path class="cls-8" d="M32.3,15.49l-.09-.07v-.05l.11-.83,0,0,1-.44.1.07v.06l-.11.83,0,0Zm.2-.82-.07.56.78-.33.07-.56Z"/><rect class="cls-8" x="28.8" y="16.87" width="0.79" height="0.2" transform="translate(8.72 43.81) rotate(-82.83)"/><rect class="cls-8" x="31.1" y="14.51" width="0.79" height="0.2" transform="translate(13.06 44.03) rotate(-82.83)"/><rect class="cls-8" x="31.19" y="18.32" width="0.79" height="0.2" transform="translate(9.37 47.46) rotate(-82.83)"/><path class="cls-8" d="M51.29,9.32l0,0-.88-.66V8.56l.11-.85h.1l1.86.21.06.06V8l-.1.81,0,0Zm-.71-.79.74.57.9-.38.08-.61-1.65-.19Z"/><polygon class="cls-7" points="50.57 7.82 50.48 8.58 50.48 8.58 51.31 9.21 51.31 9.21 52.31 8.79 52.31 8.79 52.41 8.03 52.4 8.03 50.57 7.82 50.57 7.82"/><path class="cls-9" d="M52.4,8l-1,.42h0l-.83-.63h0l1-.42h0L52.4,8Z"/><path class="cls-8" d="M51.39,8.56l0,0-.87-.66,0-.11,0,0,1-.44.05,0L52.5,8v.11l-.05,0Zm-.63-.72.66.5L52.21,8l-.65-.5Z"/><polygon class="cls-8" points="51.4 8.45 51.31 9.21 51.31 9.21 52.31 8.79 52.31 8.79 52.41 8.03 52.4 8.03 51.41 8.45 51.4 8.45"/><path class="cls-8" d="M51.3,9.32l-.09-.07V9.19l.11-.8,0,0,1.06-.44.09.06V8l-.1.81,0,0Zm.19-.81-.07.55.8-.34.07-.54Z"/></g></svg>